<mxfile host="Electron" agent="Mozilla/5.0 (Windows NT 10.0; Win64; x64) AppleWebKit/537.36 (KHTML, like Gecko) draw.io/26.0.9 Chrome/128.0.6613.186 Electron/32.2.5 Safari/537.36" version="26.0.9" pages="4">
  <diagram name="Diagrammi-1" id="adNDURB259T_IiHdilrD">
    <mxGraphModel dx="1050" dy="621" grid="0" gridSize="10" guides="1" tooltips="1" connect="1" arrows="1" fold="1" page="1" pageScale="1" pageWidth="1169" pageHeight="827" math="1" shadow="0">
      <root>
        <mxCell id="0" />
        <mxCell id="1" parent="0" />
        <mxCell id="X9VETM2yg6u4_EDR-1ea-2" value="&lt;table style=&quot;border: 1px solid rgb(51, 0, 0); border-collapse: collapse; font-size: 12px;&quot; border=&quot;1&quot;&gt;&lt;tbody style=&quot;font-size: 12px;&quot;&gt;&lt;tr style=&quot;font-size: 12px;&quot;&gt;&lt;td style=&quot;font-size: 12px;&quot;&gt;Anni Maria&lt;/td&gt;&lt;/tr&gt;&lt;tr style=&quot;font-size: 12px;&quot;&gt;&lt;td border=&quot;1&quot; style=&quot;font-size: 12px; border: 1px solid rgb(51, 0, 0); border-collapse: collapse;&quot;&gt;$$2 \cdot f$$&lt;/td&gt;&lt;/tr&gt;&lt;tr style=&quot;font-size: 12px;&quot;&gt;&lt;td style=&quot;font-size: 12px;&quot;&gt;$$50$$&lt;/td&gt;&lt;/tr&gt;&lt;/tbody&gt;&lt;/table&gt;" style="text;html=1;align=center;verticalAlign=middle;whiteSpace=wrap;rounded=0;fontSize=12;" parent="1" vertex="1">
          <mxGeometry x="323" y="68" width="107" height="120" as="geometry" />
        </mxCell>
        <mxCell id="ibqwqm7O7WYa_dijnDCt-3" value="&lt;table style=&quot;border: 1px solid rgb(51, 0, 0); border-collapse: collapse; font-size: 12px;&quot; border=&quot;1&quot;&gt;&lt;tbody style=&quot;font-size: 12px;&quot;&gt;&lt;tr style=&quot;font-size: 12px;&quot;&gt;&lt;td style=&quot;font-size: 12px;&quot;&gt;Anni Figlia Maria&lt;/td&gt;&lt;/tr&gt;&lt;tr style=&quot;font-size: 12px;&quot;&gt;&lt;td border=&quot;1&quot; style=&quot;font-size: 12px; border: 1px solid rgb(51, 0, 0); border-collapse: collapse;&quot;&gt;$$f$$&lt;/td&gt;&lt;/tr&gt;&lt;/tbody&gt;&lt;/table&gt;" style="text;html=1;align=center;verticalAlign=middle;whiteSpace=wrap;rounded=0;fontSize=12;" parent="1" vertex="1">
          <mxGeometry x="103" y="93" width="107" height="70" as="geometry" />
        </mxCell>
        <mxCell id="ibqwqm7O7WYa_dijnDCt-4" value="" style="endArrow=classic;html=1;rounded=0;exitX=1;exitY=0.5;exitDx=0;exitDy=0;entryX=0;entryY=0.5;entryDx=0;entryDy=0;" parent="1" source="ibqwqm7O7WYa_dijnDCt-3" target="X9VETM2yg6u4_EDR-1ea-2" edge="1">
          <mxGeometry width="50" height="50" relative="1" as="geometry">
            <mxPoint x="353" y="303" as="sourcePoint" />
            <mxPoint x="403" y="253" as="targetPoint" />
          </mxGeometry>
        </mxCell>
        <mxCell id="ibqwqm7O7WYa_dijnDCt-5" value="Maria ha 50 anni ed ha il doppio degli anni di sua figlia. Quanti anni ha la figlia di Maria?" style="text;whiteSpace=wrap;" parent="1" vertex="1">
          <mxGeometry x="33" y="28" width="500" height="40" as="geometry" />
        </mxCell>
        <mxCell id="ibqwqm7O7WYa_dijnDCt-8" value="&lt;table style=&quot;border: 1px solid rgb(51, 0, 0); border-collapse: collapse; font-size: 12px;&quot; border=&quot;1&quot;&gt;&lt;tbody style=&quot;font-size: 12px;&quot;&gt;&lt;tr style=&quot;font-size: 12px;&quot;&gt;&lt;td style=&quot;font-size: 12px;&quot;&gt;Lunghezza Trave&lt;/td&gt;&lt;/tr&gt;&lt;tr style=&quot;font-size: 12px;&quot;&gt;&lt;td border=&quot;1&quot; style=&quot;font-size: 12px; border: 1px solid rgb(51, 0, 0); border-collapse: collapse;&quot;&gt;$$\dfrac{2}{3} \cdot l$$&lt;/td&gt;&lt;/tr&gt;&lt;/tbody&gt;&lt;/table&gt;" style="text;html=1;align=center;verticalAlign=middle;whiteSpace=wrap;rounded=0;fontSize=12;" parent="1" vertex="1">
          <mxGeometry x="315" y="227.5" width="107" height="75" as="geometry" />
        </mxCell>
        <mxCell id="ibqwqm7O7WYa_dijnDCt-9" value="&lt;table style=&quot;border: 1px solid rgb(51, 0, 0); border-collapse: collapse; font-size: 12px;&quot; border=&quot;1&quot;&gt;&lt;tbody style=&quot;font-size: 12px;&quot;&gt;&lt;tr style=&quot;font-size: 12px;&quot;&gt;&lt;td style=&quot;font-size: 12px;&quot;&gt;Lunghezza Camion&lt;/td&gt;&lt;/tr&gt;&lt;tr style=&quot;font-size: 12px;&quot;&gt;&lt;td border=&quot;1&quot; style=&quot;font-size: 12px; border: 1px solid rgb(51, 0, 0); border-collapse: collapse;&quot;&gt;$$l$$&lt;/td&gt;&lt;/tr&gt;&lt;/tbody&gt;&lt;/table&gt;" style="text;html=1;align=center;verticalAlign=middle;whiteSpace=wrap;rounded=0;fontSize=12;" parent="1" vertex="1">
          <mxGeometry x="99" y="230" width="107" height="70" as="geometry" />
        </mxCell>
        <mxCell id="ibqwqm7O7WYa_dijnDCt-10" value="" style="endArrow=classic;html=1;rounded=0;exitX=1;exitY=0.5;exitDx=0;exitDy=0;entryX=0;entryY=0.5;entryDx=0;entryDy=0;" parent="1" source="ibqwqm7O7WYa_dijnDCt-9" target="ibqwqm7O7WYa_dijnDCt-8" edge="1">
          <mxGeometry width="50" height="50" relative="1" as="geometry">
            <mxPoint x="349" y="440" as="sourcePoint" />
            <mxPoint x="399" y="390" as="targetPoint" />
          </mxGeometry>
        </mxCell>
        <mxCell id="ibqwqm7O7WYa_dijnDCt-12" value="Una trave di cemento è i due terzi del camion che la trasporta" style="text;whiteSpace=wrap;" parent="1" vertex="1">
          <mxGeometry x="43" y="185" width="500" height="40" as="geometry" />
        </mxCell>
        <mxCell id="aaP4mj72L_Mo7SUK6RYg-1" value="&lt;table style=&quot;border: 1px solid rgb(51, 0, 0); border-collapse: collapse; font-size: 12px;&quot; border=&quot;1&quot;&gt;&lt;tbody style=&quot;font-size: 12px;&quot;&gt;&lt;tr style=&quot;font-size: 12px;&quot;&gt;&lt;td style=&quot;font-size: 12px;&quot;&gt;Utile&lt;/td&gt;&lt;/tr&gt;&lt;tr style=&quot;font-size: 12px;&quot;&gt;&lt;td border=&quot;1&quot; style=&quot;font-size: 12px; border: 1px solid rgb(51, 0, 0); border-collapse: collapse;&quot;&gt;$$20\% \cdot F$$&lt;/td&gt;&lt;/tr&gt;&lt;/tbody&gt;&lt;/table&gt;" style="text;html=1;align=center;verticalAlign=middle;whiteSpace=wrap;rounded=0;fontSize=12;" parent="1" vertex="1">
          <mxGeometry x="218" y="485" width="65" height="86" as="geometry" />
        </mxCell>
        <mxCell id="aaP4mj72L_Mo7SUK6RYg-3" value="" style="endArrow=classic;html=1;rounded=0;exitX=1;exitY=0.5;exitDx=0;exitDy=0;entryX=0;entryY=0.5;entryDx=0;entryDy=0;" parent="1" target="aaP4mj72L_Mo7SUK6RYg-1" edge="1">
          <mxGeometry width="50" height="50" relative="1" as="geometry">
            <mxPoint x="139" y="528" as="sourcePoint" />
            <mxPoint x="298" y="653" as="targetPoint" />
          </mxGeometry>
        </mxCell>
        <mxCell id="aaP4mj72L_Mo7SUK6RYg-5" value="Una azienda ha avuto, nell&#39;anno appena trascorso, un utile pari al 20\% del fatturato" style="text;whiteSpace=wrap;" parent="1" vertex="1">
          <mxGeometry x="24" y="448" width="428" height="40" as="geometry" />
        </mxCell>
        <mxCell id="aaP4mj72L_Mo7SUK6RYg-7" value="&lt;table style=&quot;border: 1px solid rgb(51, 0, 0); border-collapse: collapse; font-size: 12px;&quot; border=&quot;1&quot;&gt;&lt;tbody style=&quot;font-size: 12px;&quot;&gt;&lt;tr style=&quot;font-size: 12px;&quot;&gt;&lt;td style=&quot;font-size: 12px;&quot;&gt;Num. Operai&lt;/td&gt;&lt;/tr&gt;&lt;tr style=&quot;font-size: 12px;&quot;&gt;&lt;td border=&quot;1&quot; style=&quot;font-size: 12px; border: 1px solid rgb(51, 0, 0); border-collapse: collapse;&quot;&gt;$$x + 1.000$$&lt;/td&gt;&lt;/tr&gt;&lt;/tbody&gt;&lt;/table&gt;" style="text;html=1;align=center;verticalAlign=middle;whiteSpace=wrap;rounded=0;fontSize=12;" parent="1" vertex="1">
          <mxGeometry x="222" y="709" width="77" height="70" as="geometry" />
        </mxCell>
        <mxCell id="aaP4mj72L_Mo7SUK6RYg-8" value="&lt;table style=&quot;border: 1px solid rgb(51, 0, 0); border-collapse: collapse; font-size: 12px;&quot; border=&quot;1&quot;&gt;&lt;tbody style=&quot;font-size: 12px;&quot;&gt;&lt;tr style=&quot;font-size: 12px;&quot;&gt;&lt;td style=&quot;font-size: 12px;&quot;&gt;Num. Impiegati&lt;/td&gt;&lt;/tr&gt;&lt;tr style=&quot;font-size: 12px;&quot;&gt;&lt;td border=&quot;1&quot; style=&quot;font-size: 12px; border: 1px solid rgb(51, 0, 0); border-collapse: collapse;&quot;&gt;$$x$$&lt;/td&gt;&lt;/tr&gt;&lt;/tbody&gt;&lt;/table&gt;" style="text;html=1;align=center;verticalAlign=middle;whiteSpace=wrap;rounded=0;fontSize=12;" parent="1" vertex="1">
          <mxGeometry x="28" y="741.5" width="107" height="5" as="geometry" />
        </mxCell>
        <mxCell id="aaP4mj72L_Mo7SUK6RYg-9" value="" style="endArrow=classic;html=1;rounded=0;exitX=1;exitY=0.5;exitDx=0;exitDy=0;entryX=0;entryY=0.5;entryDx=0;entryDy=0;" parent="1" source="aaP4mj72L_Mo7SUK6RYg-8" target="aaP4mj72L_Mo7SUK6RYg-7" edge="1">
          <mxGeometry width="50" height="50" relative="1" as="geometry">
            <mxPoint x="244" y="919" as="sourcePoint" />
            <mxPoint x="294" y="869" as="targetPoint" />
          </mxGeometry>
        </mxCell>
        <mxCell id="aaP4mj72L_Mo7SUK6RYg-11" value="In una industria &#xa;ci sono operai ed impiegati; gli operai superano di $1000$ unità il numero degli impiegati." style="text;whiteSpace=wrap;" parent="1" vertex="1">
          <mxGeometry x="73" y="651" width="387" height="40" as="geometry" />
        </mxCell>
        <mxCell id="aaP4mj72L_Mo7SUK6RYg-14" value="&lt;table style=&quot;border: 1px solid rgb(51, 0, 0); border-collapse: collapse; font-size: 12px;&quot; border=&quot;1&quot;&gt;&lt;tbody style=&quot;font-size: 12px;&quot;&gt;&lt;tr style=&quot;font-size: 12px;&quot;&gt;&lt;td style=&quot;font-size: 12px;&quot;&gt;Lungheza Palo in Terreno&lt;/td&gt;&lt;/tr&gt;&lt;tr style=&quot;font-size: 12px;&quot;&gt;&lt;td border=&quot;1&quot; style=&quot;font-size: 12px; border: 1px solid rgb(51, 0, 0); border-collapse: collapse;&quot;&gt;$$\dfrac{1}{3} \cdot x$$&lt;/td&gt;&lt;/tr&gt;&lt;/tbody&gt;&lt;/table&gt;" style="text;html=1;align=center;verticalAlign=middle;whiteSpace=wrap;rounded=0;fontSize=12;" parent="1" vertex="1">
          <mxGeometry x="813" y="75" width="112" height="120" as="geometry" />
        </mxCell>
        <mxCell id="aaP4mj72L_Mo7SUK6RYg-15" value="&lt;table style=&quot;border: 1px solid rgb(51, 0, 0); border-collapse: collapse; font-size: 12px;&quot; border=&quot;1&quot;&gt;&lt;tbody style=&quot;font-size: 12px;&quot;&gt;&lt;tr style=&quot;font-size: 12px;&quot;&gt;&lt;td style=&quot;font-size: 12px;&quot;&gt;Lunghezza Palo&lt;/td&gt;&lt;/tr&gt;&lt;tr style=&quot;font-size: 12px;&quot;&gt;&lt;td border=&quot;1&quot; style=&quot;font-size: 12px; border: 1px solid rgb(51, 0, 0); border-collapse: collapse;&quot;&gt;$$x$$&lt;/td&gt;&lt;/tr&gt;&lt;/tbody&gt;&lt;/table&gt;" style="text;html=1;align=center;verticalAlign=middle;whiteSpace=wrap;rounded=0;fontSize=12;" parent="1" vertex="1">
          <mxGeometry x="591" y="100" width="107" height="70" as="geometry" />
        </mxCell>
        <mxCell id="aaP4mj72L_Mo7SUK6RYg-16" value="" style="endArrow=classic;html=1;rounded=0;exitX=1;exitY=0.5;exitDx=0;exitDy=0;" parent="1" source="aaP4mj72L_Mo7SUK6RYg-15" target="aaP4mj72L_Mo7SUK6RYg-14" edge="1">
          <mxGeometry width="50" height="50" relative="1" as="geometry">
            <mxPoint x="841" y="316" as="sourcePoint" />
            <mxPoint x="807" y="141" as="targetPoint" />
          </mxGeometry>
        </mxCell>
        <mxCell id="aaP4mj72L_Mo7SUK6RYg-18" value="Un terzo di un palo è conficcato nel terreno, un quarto è immerso nell’acqua e la lunghezza del palo è completata dalla parte che emerge." style="text;whiteSpace=wrap;" parent="1" vertex="1">
          <mxGeometry x="573" y="17" width="554" height="40" as="geometry" />
        </mxCell>
        <mxCell id="aaP4mj72L_Mo7SUK6RYg-19" value="&lt;table style=&quot;border: 1px solid rgb(51, 0, 0); border-collapse: collapse; font-size: 12px;&quot; border=&quot;1&quot;&gt;&lt;tbody style=&quot;font-size: 12px;&quot;&gt;&lt;tr style=&quot;font-size: 12px;&quot;&gt;&lt;td style=&quot;font-size: 12px;&quot;&gt;Lunghezza Palo in Acqua&lt;/td&gt;&lt;/tr&gt;&lt;tr style=&quot;font-size: 12px;&quot;&gt;&lt;td border=&quot;1&quot; style=&quot;font-size: 12px; border: 1px solid rgb(51, 0, 0); border-collapse: collapse;&quot;&gt;$$\dfrac{1}{4} \cdot x$$&lt;/td&gt;&lt;/tr&gt;&lt;/tbody&gt;&lt;/table&gt;" style="text;html=1;align=center;verticalAlign=middle;whiteSpace=wrap;rounded=0;fontSize=12;" parent="1" vertex="1">
          <mxGeometry x="807" y="214" width="107" height="120" as="geometry" />
        </mxCell>
        <mxCell id="aaP4mj72L_Mo7SUK6RYg-20" value="&lt;table style=&quot;border: 1px solid rgb(51, 0, 0); border-collapse: collapse; font-size: 12px;&quot; border=&quot;1&quot;&gt;&lt;tbody style=&quot;font-size: 12px;&quot;&gt;&lt;tr style=&quot;font-size: 12px;&quot;&gt;&lt;td style=&quot;font-size: 12px;&quot;&gt;Lunghezza Palo Emergente&lt;/td&gt;&lt;/tr&gt;&lt;tr style=&quot;font-size: 12px;&quot;&gt;&lt;td border=&quot;1&quot; style=&quot;font-size: 12px; border: 1px solid rgb(51, 0, 0); border-collapse: collapse;&quot;&gt;$$x - \dfrac{1}{3}x - \dfrac{1}{4}x$$&lt;/td&gt;&lt;/tr&gt;&lt;/tbody&gt;&lt;/table&gt;" style="text;html=1;align=center;verticalAlign=middle;whiteSpace=wrap;rounded=0;fontSize=12;" parent="1" vertex="1">
          <mxGeometry x="999" y="110" width="147" height="102" as="geometry" />
        </mxCell>
        <mxCell id="aaP4mj72L_Mo7SUK6RYg-21" value="" style="endArrow=classic;html=1;rounded=0;exitX=1;exitY=0.75;exitDx=0;exitDy=0;entryX=0;entryY=0.5;entryDx=0;entryDy=0;" parent="1" source="aaP4mj72L_Mo7SUK6RYg-15" target="aaP4mj72L_Mo7SUK6RYg-19" edge="1">
          <mxGeometry width="50" height="50" relative="1" as="geometry">
            <mxPoint x="708" y="151" as="sourcePoint" />
            <mxPoint x="821" y="151" as="targetPoint" />
          </mxGeometry>
        </mxCell>
        <mxCell id="aaP4mj72L_Mo7SUK6RYg-23" value="" style="endArrow=classic;html=1;rounded=0;exitX=1;exitY=0.5;exitDx=0;exitDy=0;entryX=-0.017;entryY=0.838;entryDx=0;entryDy=0;entryPerimeter=0;" parent="1" source="aaP4mj72L_Mo7SUK6RYg-19" target="aaP4mj72L_Mo7SUK6RYg-20" edge="1">
          <mxGeometry width="50" height="50" relative="1" as="geometry">
            <mxPoint x="708" y="169" as="sourcePoint" />
            <mxPoint x="817" y="284" as="targetPoint" />
          </mxGeometry>
        </mxCell>
        <mxCell id="aaP4mj72L_Mo7SUK6RYg-25" value="" style="endArrow=classic;html=1;rounded=0;exitX=1;exitY=0.5;exitDx=0;exitDy=0;entryX=0;entryY=0.25;entryDx=0;entryDy=0;" parent="1" source="aaP4mj72L_Mo7SUK6RYg-14" target="aaP4mj72L_Mo7SUK6RYg-20" edge="1">
          <mxGeometry width="50" height="50" relative="1" as="geometry">
            <mxPoint x="914" y="141" as="sourcePoint" />
            <mxPoint x="827" y="294" as="targetPoint" />
          </mxGeometry>
        </mxCell>
        <mxCell id="aaP4mj72L_Mo7SUK6RYg-27" value="" style="endArrow=classic;html=1;rounded=0;exitX=0.5;exitY=1;exitDx=0;exitDy=0;entryX=0.5;entryY=1;entryDx=0;entryDy=0;" parent="1" source="aaP4mj72L_Mo7SUK6RYg-15" target="aaP4mj72L_Mo7SUK6RYg-20" edge="1">
          <mxGeometry width="50" height="50" relative="1" as="geometry">
            <mxPoint x="728" y="189" as="sourcePoint" />
            <mxPoint x="837" y="304" as="targetPoint" />
            <Array as="points">
              <mxPoint x="645" y="337" />
              <mxPoint x="1073" y="337" />
            </Array>
          </mxGeometry>
        </mxCell>
        <mxCell id="aaP4mj72L_Mo7SUK6RYg-36" value="" style="endArrow=classic;html=1;rounded=0;" parent="1" source="Ft-xt5CuEHFHloPBBR_H-9" target="Ft-xt5CuEHFHloPBBR_H-10" edge="1">
          <mxGeometry width="50" height="50" relative="1" as="geometry">
            <mxPoint x="650" y="553.5" as="sourcePoint" />
            <mxPoint x="914" y="585" as="targetPoint" />
          </mxGeometry>
        </mxCell>
        <mxCell id="aaP4mj72L_Mo7SUK6RYg-38" value="" style="endArrow=classic;html=1;rounded=0;" parent="1" source="Ft-xt5CuEHFHloPBBR_H-7" target="Ft-xt5CuEHFHloPBBR_H-9" edge="1">
          <mxGeometry width="50" height="50" relative="1" as="geometry">
            <mxPoint x="744" y="445" as="sourcePoint" />
            <mxPoint x="769" y="678.5" as="targetPoint" />
          </mxGeometry>
        </mxCell>
        <mxCell id="aaP4mj72L_Mo7SUK6RYg-42" value="Un vecchio video game è stato ribassato da 48 a 18 euro. Quale è il diagramma per il calcolo della percentuale di sconto?" style="text;whiteSpace=wrap;" parent="1" vertex="1">
          <mxGeometry x="489" y="384" width="646" height="50" as="geometry" />
        </mxCell>
        <mxCell id="aaP4mj72L_Mo7SUK6RYg-43" value="" style="endArrow=classic;html=1;rounded=0;" parent="1" source="Ft-xt5CuEHFHloPBBR_H-8" target="Ft-xt5CuEHFHloPBBR_H-9" edge="1">
          <mxGeometry width="50" height="50" relative="1" as="geometry">
            <mxPoint x="650" y="530" as="sourcePoint" />
            <mxPoint x="752" y="575" as="targetPoint" />
          </mxGeometry>
        </mxCell>
        <mxCell id="aaP4mj72L_Mo7SUK6RYg-46" value="" style="endArrow=classic;html=1;rounded=0;" parent="1" source="Ft-xt5CuEHFHloPBBR_H-8" target="Ft-xt5CuEHFHloPBBR_H-10" edge="1">
          <mxGeometry width="50" height="50" relative="1" as="geometry">
            <mxPoint x="640" y="682.5" as="sourcePoint" />
            <mxPoint x="914" y="603.8107511045655" as="targetPoint" />
          </mxGeometry>
        </mxCell>
        <mxCell id="kwobuAVEp-BLSN25UwAX-2" value="" style="edgeStyle=orthogonalEdgeStyle;rounded=0;orthogonalLoop=1;jettySize=auto;html=1;" parent="1" source="kwobuAVEp-BLSN25UwAX-1" target="aaP4mj72L_Mo7SUK6RYg-1" edge="1">
          <mxGeometry relative="1" as="geometry" />
        </mxCell>
        <mxCell id="kwobuAVEp-BLSN25UwAX-1" value="&lt;table style=&quot;border: 1px solid rgb(51, 0, 0); border-collapse: collapse; font-size: 12px;&quot; border=&quot;1&quot;&gt;&lt;tbody style=&quot;font-size: 12px;&quot;&gt;&lt;tr style=&quot;font-size: 12px;&quot;&gt;&lt;td style=&quot;font-size: 12px;&quot;&gt;Fatturato&lt;/td&gt;&lt;/tr&gt;&lt;tr style=&quot;font-size: 12px;&quot;&gt;&lt;td border=&quot;1&quot; style=&quot;font-size: 12px; border: 1px solid rgb(51, 0, 0); border-collapse: collapse;&quot;&gt;$$F$$&lt;/td&gt;&lt;/tr&gt;&lt;/tbody&gt;&lt;/table&gt;" style="text;html=1;align=center;verticalAlign=middle;whiteSpace=wrap;rounded=0;fontSize=12;" parent="1" vertex="1">
          <mxGeometry x="43" y="493" width="69" height="70" as="geometry" />
        </mxCell>
        <mxCell id="kwobuAVEp-BLSN25UwAX-4" value="Un viale di forma rettangolare, che conduce alla porta di ingresso di una casa, ha un&#39;area di 24 \; m^2 ed è largo 3 metri. Quanto è lungo il viale?" style="text;whiteSpace=wrap;" parent="1" vertex="1">
          <mxGeometry x="38" y="845" width="574" height="40" as="geometry" />
        </mxCell>
        <mxCell id="kwobuAVEp-BLSN25UwAX-5" value="" style="rounded=0;orthogonalLoop=1;jettySize=auto;html=1;entryX=0;entryY=0.25;entryDx=0;entryDy=0;" parent="1" source="kwobuAVEp-BLSN25UwAX-6" target="kwobuAVEp-BLSN25UwAX-10" edge="1">
          <mxGeometry relative="1" as="geometry">
            <mxPoint x="204" y="981" as="targetPoint" />
          </mxGeometry>
        </mxCell>
        <mxCell id="kwobuAVEp-BLSN25UwAX-6" value="&lt;table style=&quot;border: 1px solid rgb(51, 0, 0); border-collapse: collapse; font-size: 12px;&quot; border=&quot;1&quot;&gt;&lt;tbody style=&quot;font-size: 12px;&quot;&gt;&lt;tr style=&quot;font-size: 12px;&quot;&gt;&lt;td style=&quot;font-size: 12px;&quot;&gt;Lunghezza Viale&lt;/td&gt;&lt;/tr&gt;&lt;tr style=&quot;font-size: 12px;&quot;&gt;&lt;td border=&quot;1&quot; style=&quot;font-size: 12px; border: 1px solid rgb(51, 0, 0); border-collapse: collapse;&quot;&gt;$$l$$&lt;/td&gt;&lt;/tr&gt;&lt;/tbody&gt;&lt;/table&gt;" style="text;html=1;align=center;verticalAlign=middle;whiteSpace=wrap;rounded=0;fontSize=12;" parent="1" vertex="1">
          <mxGeometry x="44" y="906" width="69" height="70" as="geometry" />
        </mxCell>
        <mxCell id="kwobuAVEp-BLSN25UwAX-7" value="&lt;table style=&quot;border: 1px solid rgb(51, 0, 0); border-collapse: collapse; font-size: 12px;&quot; border=&quot;1&quot;&gt;&lt;tbody style=&quot;font-size: 12px;&quot;&gt;&lt;tr style=&quot;font-size: 12px;&quot;&gt;&lt;td style=&quot;font-size: 12px;&quot;&gt;Larghezza Viale&lt;/td&gt;&lt;/tr&gt;&lt;tr style=&quot;font-size: 12px;&quot;&gt;&lt;td border=&quot;1&quot; style=&quot;font-size: 12px; border: 1px solid rgb(51, 0, 0); border-collapse: collapse;&quot;&gt;$$3$$&lt;/td&gt;&lt;/tr&gt;&lt;/tbody&gt;&lt;/table&gt;" style="text;html=1;align=center;verticalAlign=middle;whiteSpace=wrap;rounded=0;fontSize=12;" parent="1" vertex="1">
          <mxGeometry x="47" y="1017" width="69" height="70" as="geometry" />
        </mxCell>
        <mxCell id="kwobuAVEp-BLSN25UwAX-8" value="" style="rounded=0;orthogonalLoop=1;jettySize=auto;html=1;exitX=1;exitY=0.5;exitDx=0;exitDy=0;entryX=0;entryY=0.5;entryDx=0;entryDy=0;" parent="1" source="kwobuAVEp-BLSN25UwAX-7" target="kwobuAVEp-BLSN25UwAX-10" edge="1">
          <mxGeometry relative="1" as="geometry">
            <mxPoint x="123" y="956" as="sourcePoint" />
            <mxPoint x="204" y="1002.5" as="targetPoint" />
          </mxGeometry>
        </mxCell>
        <mxCell id="kwobuAVEp-BLSN25UwAX-10" value="&lt;table style=&quot;border: 1px solid rgb(51, 0, 0); border-collapse: collapse; font-size: 12px;&quot; border=&quot;1&quot;&gt;&lt;tbody style=&quot;font-size: 12px;&quot;&gt;&lt;tr style=&quot;font-size: 12px;&quot;&gt;&lt;td style=&quot;font-size: 12px;&quot;&gt;Area Viale&lt;/td&gt;&lt;/tr&gt;&lt;tr style=&quot;font-size: 12px;&quot;&gt;&lt;td border=&quot;1&quot; style=&quot;font-size: 12px; border: 1px solid rgb(51, 0, 0); border-collapse: collapse;&quot;&gt;$$3 \cdot l$$&lt;/td&gt;&lt;/tr&gt;&lt;tr style=&quot;font-size: 12px;&quot;&gt;&lt;td style=&quot;font-size: 12px;&quot;&gt;$$24$$&lt;/td&gt;&lt;/tr&gt;&lt;/tbody&gt;&lt;/table&gt;" style="text;html=1;align=center;verticalAlign=middle;whiteSpace=wrap;rounded=0;fontSize=12;" parent="1" vertex="1">
          <mxGeometry x="210" y="946" width="75" height="120" as="geometry" />
        </mxCell>
        <mxCell id="Vod4vXPm_FU8ooXqPvmL-1" value="&lt;table style=&quot;border: 1px solid rgb(51, 0, 0); border-collapse: collapse; font-size: 12px;&quot; border=&quot;1&quot;&gt;&lt;tbody style=&quot;font-size: 12px;&quot;&gt;&lt;tr style=&quot;font-size: 12px;&quot;&gt;&lt;td style=&quot;font-size: 12px;&quot;&gt;Utile&lt;/td&gt;&lt;/tr&gt;&lt;tr&gt;&lt;td&gt;$$100.000-C$$&lt;/td&gt;&lt;/tr&gt;&lt;tr style=&quot;font-size: 12px;&quot;&gt;&lt;td border=&quot;1&quot; style=&quot;font-size: 12px; border: 1px solid rgb(51, 0, 0); border-collapse: collapse;&quot;&gt;$$20\% \cdot 2.100.000$$&lt;/td&gt;&lt;/tr&gt;&lt;/tbody&gt;&lt;/table&gt;" style="text;html=1;align=center;verticalAlign=middle;whiteSpace=wrap;rounded=0;fontSize=12;" parent="1" vertex="1">
          <mxGeometry x="924" y="963" width="102" height="108" as="geometry" />
        </mxCell>
        <mxCell id="Vod4vXPm_FU8ooXqPvmL-3" value="" style="endArrow=classic;html=1;rounded=0;exitX=1;exitY=0.75;exitDx=0;exitDy=0;entryX=0;entryY=0.75;entryDx=0;entryDy=0;" parent="1" source="9hGF0fckmYPZaFmBBQOQ-5" target="Vod4vXPm_FU8ooXqPvmL-1" edge="1">
          <mxGeometry width="50" height="50" relative="1" as="geometry">
            <mxPoint x="923" y="1161" as="sourcePoint" />
            <mxPoint x="973" y="1111" as="targetPoint" />
          </mxGeometry>
        </mxCell>
        <mxCell id="Vod4vXPm_FU8ooXqPvmL-5" value="Una azienda ha avuto, nell&#39;anno appena trascorso, un fatturato&#xa; di 2.100.000 euro ed un utile pari al 20\% del fatturato" style="text;whiteSpace=wrap;" parent="1" vertex="1">
          <mxGeometry x="703" y="845" width="428" height="40" as="geometry" />
        </mxCell>
        <mxCell id="Vod4vXPm_FU8ooXqPvmL-6" value="&lt;table style=&quot;border: 1px solid rgb(51, 0, 0); border-collapse: collapse; font-size: 12px;&quot; border=&quot;1&quot;&gt;&lt;tbody style=&quot;font-size: 12px;&quot;&gt;&lt;tr style=&quot;font-size: 12px;&quot;&gt;&lt;td style=&quot;font-size: 12px;&quot;&gt;Costo&lt;/td&gt;&lt;/tr&gt;&lt;tr style=&quot;font-size: 12px;&quot;&gt;&lt;td border=&quot;1&quot; style=&quot;font-size: 12px; border: 1px solid rgb(51, 0, 0); border-collapse: collapse;&quot;&gt;$$C$$&lt;/td&gt;&lt;/tr&gt;&lt;/tbody&gt;&lt;/table&gt;" style="text;html=1;align=center;verticalAlign=middle;whiteSpace=wrap;rounded=0;fontSize=12;" parent="1" vertex="1">
          <mxGeometry x="729" y="913" width="51" height="71" as="geometry" />
        </mxCell>
        <mxCell id="Vod4vXPm_FU8ooXqPvmL-7" value="" style="endArrow=classic;html=1;rounded=0;exitX=1;exitY=0.5;exitDx=0;exitDy=0;entryX=0;entryY=0.25;entryDx=0;entryDy=0;" parent="1" source="Vod4vXPm_FU8ooXqPvmL-6" target="Vod4vXPm_FU8ooXqPvmL-1" edge="1">
          <mxGeometry width="50" height="50" relative="1" as="geometry">
            <mxPoint x="832" y="973" as="sourcePoint" />
            <mxPoint x="949" y="1024" as="targetPoint" />
          </mxGeometry>
        </mxCell>
        <mxCell id="Vod4vXPm_FU8ooXqPvmL-9" value="" style="endArrow=classic;html=1;rounded=0;entryX=0;entryY=0.5;entryDx=0;entryDy=0;" parent="1" source="9hGF0fckmYPZaFmBBQOQ-5" target="Vod4vXPm_FU8ooXqPvmL-1" edge="1">
          <mxGeometry width="50" height="50" relative="1" as="geometry">
            <mxPoint x="801" y="1102" as="sourcePoint" />
            <mxPoint x="934" y="1054" as="targetPoint" />
          </mxGeometry>
        </mxCell>
        <mxCell id="irbMdgXcajklDOT4Z6r5-1" value="Uno studente percorre in bicicletta una strada di 20 Km ad una velocità di 12 Km/h​. Quale è il diagramma delle dipendenze?" style="text;whiteSpace=wrap;" parent="1" vertex="1">
          <mxGeometry x="17" y="1192" width="574" height="40" as="geometry" />
        </mxCell>
        <mxCell id="irbMdgXcajklDOT4Z6r5-2" value="" style="rounded=0;orthogonalLoop=1;jettySize=auto;html=1;entryX=0;entryY=0.25;entryDx=0;entryDy=0;" parent="1" source="skYj7Ag8xJRqmo63EaiM-1" target="irbMdgXcajklDOT4Z6r5-8" edge="1">
          <mxGeometry relative="1" as="geometry">
            <mxPoint x="273" y="1345" as="targetPoint" />
            <mxPoint x="191" y="1328.286956521739" as="sourcePoint" />
          </mxGeometry>
        </mxCell>
        <mxCell id="irbMdgXcajklDOT4Z6r5-5" value="&lt;table style=&quot;border: 1px solid rgb(51, 0, 0); border-collapse: collapse; font-size: 12px;&quot; border=&quot;1&quot;&gt;&lt;tbody style=&quot;font-size: 12px;&quot;&gt;&lt;tr style=&quot;font-size: 12px;&quot;&gt;&lt;td style=&quot;font-size: 12px;&quot;&gt;Durata&amp;nbsp;&lt;br&gt;Viaggio&lt;/td&gt;&lt;/tr&gt;&lt;tr style=&quot;font-size: 12px;&quot;&gt;&lt;td border=&quot;1&quot; style=&quot;font-size: 12px; border: 1px solid rgb(51, 0, 0); border-collapse: collapse;&quot;&gt;$$t$$&lt;/td&gt;&lt;/tr&gt;&lt;/tbody&gt;&lt;/table&gt;" style="text;html=1;align=center;verticalAlign=middle;whiteSpace=wrap;rounded=0;fontSize=12;" parent="1" vertex="1">
          <mxGeometry x="143" y="1402" width="41.5" height="70" as="geometry" />
        </mxCell>
        <mxCell id="irbMdgXcajklDOT4Z6r5-6" value="" style="rounded=0;orthogonalLoop=1;jettySize=auto;html=1;exitX=1;exitY=0.5;exitDx=0;exitDy=0;entryX=0;entryY=0.5;entryDx=0;entryDy=0;" parent="1" source="irbMdgXcajklDOT4Z6r5-5" target="irbMdgXcajklDOT4Z6r5-8" edge="1">
          <mxGeometry relative="1" as="geometry">
            <mxPoint x="192" y="1320" as="sourcePoint" />
            <mxPoint x="273" y="1366.5" as="targetPoint" />
          </mxGeometry>
        </mxCell>
        <mxCell id="irbMdgXcajklDOT4Z6r5-8" value="&lt;table style=&quot;border: 1px solid rgb(51, 0, 0); border-collapse: collapse; font-size: 12px;&quot; border=&quot;1&quot;&gt;&lt;tbody style=&quot;font-size: 12px;&quot;&gt;&lt;tr style=&quot;font-size: 12px;&quot;&gt;&lt;td style=&quot;font-size: 12px;&quot;&gt;Velocità&lt;/td&gt;&lt;/tr&gt;&lt;tr style=&quot;font-size: 12px;&quot;&gt;&lt;td border=&quot;1&quot; style=&quot;font-size: 12px; border: 1px solid rgb(51, 0, 0); border-collapse: collapse;&quot;&gt;$$\dfrac{20}{t}$$&lt;/td&gt;&lt;/tr&gt;&lt;tr style=&quot;font-size: 12px;&quot;&gt;&lt;td style=&quot;font-size: 12px;&quot;&gt;$$12$$&lt;/td&gt;&lt;/tr&gt;&lt;/tbody&gt;&lt;/table&gt;" style="text;html=1;align=center;verticalAlign=middle;whiteSpace=wrap;rounded=0;fontSize=12;" parent="1" vertex="1">
          <mxGeometry x="275" y="1337" width="48" height="120" as="geometry" />
        </mxCell>
        <mxCell id="skYj7Ag8xJRqmo63EaiM-1" value="&lt;table style=&quot;border: 1px solid rgb(51, 0, 0); border-collapse: collapse; font-size: 12px;&quot; border=&quot;1&quot;&gt;&lt;tbody style=&quot;font-size: 12px;&quot;&gt;&lt;tr style=&quot;font-size: 12px;&quot;&gt;&lt;td style=&quot;font-size: 12px;&quot;&gt;Lunghezza Strada&lt;/td&gt;&lt;/tr&gt;&lt;tr style=&quot;font-size: 12px;&quot;&gt;&lt;td border=&quot;1&quot; style=&quot;font-size: 12px; border: 1px solid rgb(51, 0, 0); border-collapse: collapse;&quot;&gt;$$20$$&lt;/td&gt;&lt;/tr&gt;&lt;/tbody&gt;&lt;/table&gt;" style="text;html=1;align=center;verticalAlign=middle;whiteSpace=wrap;rounded=0;fontSize=12;" parent="1" vertex="1">
          <mxGeometry x="125.5" y="1288" width="69" height="70" as="geometry" />
        </mxCell>
        <mxCell id="Ft-xt5CuEHFHloPBBR_H-1" value="" style="rounded=0;orthogonalLoop=1;jettySize=auto;html=1;entryX=0;entryY=0.25;entryDx=0;entryDy=0;" parent="1" source="Ft-xt5CuEHFHloPBBR_H-5" target="Ft-xt5CuEHFHloPBBR_H-4" edge="1">
          <mxGeometry relative="1" as="geometry">
            <mxPoint x="571.5" y="1330" as="targetPoint" />
            <mxPoint x="489.5" y="1313.286956521739" as="sourcePoint" />
          </mxGeometry>
        </mxCell>
        <mxCell id="Ft-xt5CuEHFHloPBBR_H-2" value="&lt;table style=&quot;border: 1px solid rgb(51, 0, 0); border-collapse: collapse; font-size: 12px;&quot; border=&quot;1&quot;&gt;&lt;tbody style=&quot;font-size: 12px;&quot;&gt;&lt;tr style=&quot;font-size: 12px;&quot;&gt;&lt;td style=&quot;font-size: 12px;&quot;&gt;Durata&amp;nbsp;&lt;br&gt;Viaggio&lt;/td&gt;&lt;/tr&gt;&lt;tr style=&quot;font-size: 12px;&quot;&gt;&lt;td border=&quot;1&quot; style=&quot;font-size: 12px; border: 1px solid rgb(51, 0, 0); border-collapse: collapse;&quot;&gt;$$t$$&lt;/td&gt;&lt;/tr&gt;&lt;/tbody&gt;&lt;/table&gt;" style="text;html=1;align=center;verticalAlign=middle;whiteSpace=wrap;rounded=0;fontSize=12;" parent="1" vertex="1">
          <mxGeometry x="441.5" y="1387" width="41.5" height="70" as="geometry" />
        </mxCell>
        <mxCell id="Ft-xt5CuEHFHloPBBR_H-3" value="" style="rounded=0;orthogonalLoop=1;jettySize=auto;html=1;exitX=1;exitY=0.5;exitDx=0;exitDy=0;entryX=0;entryY=0.5;entryDx=0;entryDy=0;" parent="1" source="Ft-xt5CuEHFHloPBBR_H-2" target="Ft-xt5CuEHFHloPBBR_H-4" edge="1">
          <mxGeometry relative="1" as="geometry">
            <mxPoint x="490.5" y="1305" as="sourcePoint" />
            <mxPoint x="571.5" y="1351.5" as="targetPoint" />
          </mxGeometry>
        </mxCell>
        <mxCell id="Ft-xt5CuEHFHloPBBR_H-4" value="&lt;table style=&quot;border: 1px solid rgb(51, 0, 0); border-collapse: collapse; font-size: 12px;&quot; border=&quot;1&quot;&gt;&lt;tbody style=&quot;font-size: 12px;&quot;&gt;&lt;tr style=&quot;font-size: 12px;&quot;&gt;&lt;td style=&quot;font-size: 12px;&quot;&gt;Lunghezza Strada&lt;br&gt;&lt;/td&gt;&lt;/tr&gt;&lt;tr style=&quot;font-size: 12px;&quot;&gt;&lt;td border=&quot;1&quot; style=&quot;font-size: 12px; border: 1px solid rgb(51, 0, 0); border-collapse: collapse;&quot;&gt;$$12 \cdot t$$&lt;/td&gt;&lt;/tr&gt;&lt;tr style=&quot;font-size: 12px;&quot;&gt;&lt;td style=&quot;font-size: 12px;&quot;&gt;$$20$$&lt;/td&gt;&lt;/tr&gt;&lt;/tbody&gt;&lt;/table&gt;" style="text;html=1;align=center;verticalAlign=middle;whiteSpace=wrap;rounded=0;fontSize=12;" parent="1" vertex="1">
          <mxGeometry x="573.5" y="1322" width="48" height="120" as="geometry" />
        </mxCell>
        <mxCell id="Ft-xt5CuEHFHloPBBR_H-5" value="&lt;table style=&quot;border: 1px solid rgb(51, 0, 0); border-collapse: collapse; font-size: 12px;&quot; border=&quot;1&quot;&gt;&lt;tbody style=&quot;font-size: 12px;&quot;&gt;&lt;tr style=&quot;font-size: 12px;&quot;&gt;&lt;td style=&quot;font-size: 12px;&quot;&gt;Velocità&lt;/td&gt;&lt;/tr&gt;&lt;tr style=&quot;font-size: 12px;&quot;&gt;&lt;td border=&quot;1&quot; style=&quot;font-size: 12px; border: 1px solid rgb(51, 0, 0); border-collapse: collapse;&quot;&gt;$$12$$&lt;/td&gt;&lt;/tr&gt;&lt;/tbody&gt;&lt;/table&gt;" style="text;html=1;align=center;verticalAlign=middle;whiteSpace=wrap;rounded=0;fontSize=12;" parent="1" vertex="1">
          <mxGeometry x="424" y="1273" width="69" height="70" as="geometry" />
        </mxCell>
        <mxCell id="Ft-xt5CuEHFHloPBBR_H-7" value="&lt;table style=&quot;border: 1px solid rgb(51, 0, 0); border-collapse: collapse; font-size: 12px;&quot; border=&quot;1&quot;&gt;&lt;tbody style=&quot;font-size: 12px;&quot;&gt;&lt;tr style=&quot;font-size: 12px;&quot;&gt;&lt;td style=&quot;font-size: 12px;&quot;&gt;Prezzo Listino&lt;/td&gt;&lt;/tr&gt;&lt;tr style=&quot;font-size: 12px;&quot;&gt;&lt;td border=&quot;1&quot; style=&quot;font-size: 12px; border: 1px solid rgb(51, 0, 0); border-collapse: collapse;&quot;&gt;$$48$$&lt;/td&gt;&lt;/tr&gt;&lt;/tbody&gt;&lt;/table&gt;" style="text;html=1;align=center;verticalAlign=middle;whiteSpace=wrap;rounded=0;fontSize=12;" parent="1" vertex="1">
          <mxGeometry x="538" y="448" width="86" height="70" as="geometry" />
        </mxCell>
        <mxCell id="Ft-xt5CuEHFHloPBBR_H-8" value="&lt;table style=&quot;border: 1px solid rgb(51, 0, 0); border-collapse: collapse; font-size: 12px;&quot; border=&quot;1&quot;&gt;&lt;tbody style=&quot;font-size: 12px;&quot;&gt;&lt;tr style=&quot;font-size: 12px;&quot;&gt;&lt;td style=&quot;font-size: 12px;&quot;&gt;Prezzo Scontato&lt;/td&gt;&lt;/tr&gt;&lt;tr style=&quot;font-size: 12px;&quot;&gt;&lt;td border=&quot;1&quot; style=&quot;font-size: 12px; border: 1px solid rgb(51, 0, 0); border-collapse: collapse;&quot;&gt;$$18$$&lt;/td&gt;&lt;/tr&gt;&lt;/tbody&gt;&lt;/table&gt;" style="text;html=1;align=center;verticalAlign=middle;whiteSpace=wrap;rounded=0;fontSize=12;" parent="1" vertex="1">
          <mxGeometry x="535" y="634.5" width="99" height="70" as="geometry" />
        </mxCell>
        <mxCell id="Ft-xt5CuEHFHloPBBR_H-9" value="&lt;table style=&quot;border: 1px solid rgb(51, 0, 0); border-collapse: collapse; font-size: 12px;&quot; border=&quot;1&quot;&gt;&lt;tbody style=&quot;font-size: 12px;&quot;&gt;&lt;tr style=&quot;font-size: 12px;&quot;&gt;&lt;td style=&quot;font-size: 12px;&quot;&gt;Sconto&lt;/td&gt;&lt;/tr&gt;&lt;tr style=&quot;font-size: 12px;&quot;&gt;&lt;td border=&quot;1&quot; style=&quot;font-size: 12px; border: 1px solid rgb(51, 0, 0); border-collapse: collapse;&quot;&gt;$$48 - 18$$&lt;/td&gt;&lt;/tr&gt;&lt;/tbody&gt;&lt;/table&gt;" style="text;html=1;align=center;verticalAlign=middle;whiteSpace=wrap;rounded=0;fontSize=12;" parent="1" vertex="1">
          <mxGeometry x="690" y="550" width="65.5" height="70" as="geometry" />
        </mxCell>
        <mxCell id="Ft-xt5CuEHFHloPBBR_H-10" value="&lt;table style=&quot;border: 1px solid rgb(51, 0, 0); border-collapse: collapse; font-size: 12px;&quot; border=&quot;1&quot;&gt;&lt;tbody style=&quot;font-size: 12px;&quot;&gt;&lt;tr style=&quot;font-size: 12px;&quot;&gt;&lt;td style=&quot;font-size: 12px;&quot;&gt;Perc. di Sconto&lt;/td&gt;&lt;/tr&gt;&lt;tr style=&quot;font-size: 12px;&quot;&gt;&lt;td border=&quot;1&quot; style=&quot;font-size: 12px; border: 1px solid rgb(51, 0, 0); border-collapse: collapse;&quot;&gt;$$\dfrac{48 - 18}{48}$$&lt;br&gt;&lt;/td&gt;&lt;/tr&gt;&lt;/tbody&gt;&lt;/table&gt;" style="text;html=1;align=center;verticalAlign=middle;whiteSpace=wrap;rounded=0;fontSize=12;" parent="1" vertex="1">
          <mxGeometry x="894" y="553.5" width="66" height="63" as="geometry" />
        </mxCell>
        <mxCell id="9hGF0fckmYPZaFmBBQOQ-1" value="&lt;table style=&quot;border: 1px solid rgb(51, 0, 0); border-collapse: collapse; font-size: 12px;&quot; border=&quot;1&quot;&gt;&lt;tbody style=&quot;font-size: 12px;&quot;&gt;&lt;tr style=&quot;font-size: 12px;&quot;&gt;&lt;td style=&quot;font-size: 12px;&quot;&gt;Perc. Utile&lt;/td&gt;&lt;/tr&gt;&lt;tr style=&quot;font-size: 12px;&quot;&gt;&lt;td border=&quot;1&quot; style=&quot;font-size: 12px; border: 1px solid rgb(51, 0, 0); border-collapse: collapse;&quot;&gt;$$20\%$$&lt;/td&gt;&lt;/tr&gt;&lt;/tbody&gt;&lt;/table&gt;" style="text;html=1;align=center;verticalAlign=middle;whiteSpace=wrap;rounded=0;fontSize=12;" parent="1" vertex="1">
          <mxGeometry x="43" y="571" width="69" height="70" as="geometry" />
        </mxCell>
        <mxCell id="9hGF0fckmYPZaFmBBQOQ-2" value="" style="rounded=0;orthogonalLoop=1;jettySize=auto;html=1;" parent="1" source="9hGF0fckmYPZaFmBBQOQ-1" target="aaP4mj72L_Mo7SUK6RYg-1" edge="1">
          <mxGeometry relative="1" as="geometry">
            <mxPoint x="122" y="538" as="sourcePoint" />
            <mxPoint x="228" y="538" as="targetPoint" />
          </mxGeometry>
        </mxCell>
        <mxCell id="9hGF0fckmYPZaFmBBQOQ-3" value="&lt;table style=&quot;border: 1px solid rgb(51, 0, 0); border-collapse: collapse; font-size: 12px;&quot; border=&quot;1&quot;&gt;&lt;tbody style=&quot;font-size: 12px;&quot;&gt;&lt;tr style=&quot;font-size: 12px;&quot;&gt;&lt;td style=&quot;font-size: 12px;&quot;&gt;Perc. Utile&lt;/td&gt;&lt;/tr&gt;&lt;tr style=&quot;font-size: 12px;&quot;&gt;&lt;td border=&quot;1&quot; style=&quot;font-size: 12px; border: 1px solid rgb(51, 0, 0); border-collapse: collapse;&quot;&gt;$$20\%$$&lt;/td&gt;&lt;/tr&gt;&lt;/tbody&gt;&lt;/table&gt;" style="text;html=1;align=center;verticalAlign=middle;whiteSpace=wrap;rounded=0;fontSize=12;" parent="1" vertex="1">
          <mxGeometry x="849" y="1106" width="69" height="70" as="geometry" />
        </mxCell>
        <mxCell id="9hGF0fckmYPZaFmBBQOQ-4" value="" style="endArrow=classic;html=1;rounded=0;entryX=0.25;entryY=1;entryDx=0;entryDy=0;" parent="1" source="9hGF0fckmYPZaFmBBQOQ-3" target="Vod4vXPm_FU8ooXqPvmL-1" edge="1">
          <mxGeometry width="50" height="50" relative="1" as="geometry">
            <mxPoint x="800" y="1104" as="sourcePoint" />
            <mxPoint x="934" y="1054" as="targetPoint" />
          </mxGeometry>
        </mxCell>
        <mxCell id="9hGF0fckmYPZaFmBBQOQ-5" value="&lt;table style=&quot;border: 1px solid rgb(51, 0, 0); border-collapse: collapse; font-size: 12px;&quot; border=&quot;1&quot;&gt;&lt;tbody style=&quot;font-size: 12px;&quot;&gt;&lt;tr style=&quot;font-size: 12px;&quot;&gt;&lt;td style=&quot;font-size: 12px;&quot;&gt;Fatturato&lt;/td&gt;&lt;/tr&gt;&lt;tr style=&quot;font-size: 12px;&quot;&gt;&lt;td border=&quot;1&quot; style=&quot;font-size: 12px; border: 1px solid rgb(51, 0, 0); border-collapse: collapse;&quot;&gt;$$2.100.000$$&lt;br&gt;&lt;/td&gt;&lt;/tr&gt;&lt;/tbody&gt;&lt;/table&gt;" style="text;html=1;align=center;verticalAlign=middle;whiteSpace=wrap;rounded=0;fontSize=12;" parent="1" vertex="1">
          <mxGeometry x="723" y="1017" width="69" height="70" as="geometry" />
        </mxCell>
      </root>
    </mxGraphModel>
  </diagram>
  <diagram name="Diagrammi-2" id="CpayaUCt9KKf3IHAgGWn">
    <mxGraphModel dx="1050" dy="1448" grid="0" gridSize="10" guides="1" tooltips="1" connect="1" arrows="1" fold="1" page="1" pageScale="1" pageWidth="1169" pageHeight="827" math="1" shadow="0">
      <root>
        <mxCell id="P_CY6DhgwNS566kBpn0b-0" />
        <mxCell id="P_CY6DhgwNS566kBpn0b-1" parent="P_CY6DhgwNS566kBpn0b-0" />
        <mxCell id="P_CY6DhgwNS566kBpn0b-7" value="&lt;table style=&quot;border: 1px solid rgb(51, 0, 0); border-collapse: collapse; font-size: 12px;&quot; border=&quot;1&quot;&gt;&lt;tbody style=&quot;font-size: 12px;&quot;&gt;&lt;tr style=&quot;font-size: 12px;&quot;&gt;&lt;td style=&quot;font-size: 12px;&quot;&gt;Lunghezza Trave&lt;/td&gt;&lt;/tr&gt;&lt;tr style=&quot;font-size: 12px;&quot;&gt;&lt;td border=&quot;1&quot; style=&quot;font-size: 12px; border: 1px solid rgb(51, 0, 0); border-collapse: collapse;&quot;&gt;$$\dfrac{2}{3} \cdot l$$&lt;/td&gt;&lt;/tr&gt;&lt;tr&gt;&lt;td&gt;&lt;font color=&quot;#ff0000&quot;&gt;$$calc: 12$$&lt;/font&gt;&lt;/td&gt;&lt;/tr&gt;&lt;/tbody&gt;&lt;/table&gt;" style="text;html=1;align=center;verticalAlign=middle;whiteSpace=wrap;rounded=0;fontSize=12;" parent="P_CY6DhgwNS566kBpn0b-1" vertex="1">
          <mxGeometry x="286" y="-629" width="107" height="120" as="geometry" />
        </mxCell>
        <mxCell id="P_CY6DhgwNS566kBpn0b-8" value="&lt;table style=&quot;border: 1px solid rgb(51, 0, 0); border-collapse: collapse; font-size: 12px;&quot; border=&quot;1&quot;&gt;&lt;tbody style=&quot;font-size: 12px;&quot;&gt;&lt;tr style=&quot;font-size: 12px;&quot;&gt;&lt;td style=&quot;font-size: 12px;&quot;&gt;Lunghezza Camion&lt;/td&gt;&lt;/tr&gt;&lt;tr style=&quot;font-size: 12px;&quot;&gt;&lt;td border=&quot;1&quot; style=&quot;font-size: 12px; border: 1px solid rgb(51, 0, 0); border-collapse: collapse;&quot;&gt;$$l$$&lt;/td&gt;&lt;/tr&gt;&lt;tr&gt;&lt;td&gt;$$18$$&lt;/td&gt;&lt;/tr&gt;&lt;/tbody&gt;&lt;/table&gt;" style="text;html=1;align=center;verticalAlign=middle;whiteSpace=wrap;rounded=0;fontSize=12;movable=1;resizable=1;rotatable=1;deletable=1;editable=1;locked=0;connectable=1;" parent="P_CY6DhgwNS566kBpn0b-1" vertex="1">
          <mxGeometry x="75" y="-626.75" width="93" height="115.5" as="geometry" />
        </mxCell>
        <mxCell id="P_CY6DhgwNS566kBpn0b-9" value="" style="endArrow=classic;html=1;rounded=0;exitX=1;exitY=0.5;exitDx=0;exitDy=0;entryX=0;entryY=0.5;entryDx=0;entryDy=0;" parent="P_CY6DhgwNS566kBpn0b-1" source="P_CY6DhgwNS566kBpn0b-8" target="P_CY6DhgwNS566kBpn0b-7" edge="1">
          <mxGeometry width="50" height="50" relative="1" as="geometry">
            <mxPoint x="316" y="-394" as="sourcePoint" />
            <mxPoint x="366" y="-444" as="targetPoint" />
          </mxGeometry>
        </mxCell>
        <mxCell id="P_CY6DhgwNS566kBpn0b-10" value="Una trave di cemento è i due terzi del camion che la trasporta ed il camion è lungo&#xa;18 metri. Quanto è lunga la trave?" style="text;whiteSpace=wrap;" parent="P_CY6DhgwNS566kBpn0b-1" vertex="1">
          <mxGeometry x="66" y="-675" width="449" height="40" as="geometry" />
        </mxCell>
        <mxCell id="P_CY6DhgwNS566kBpn0b-12" value="&lt;table style=&quot;border: 1px solid rgb(51, 0, 0); border-collapse: collapse; font-size: 12px;&quot; border=&quot;1&quot;&gt;&lt;tbody style=&quot;font-size: 12px;&quot;&gt;&lt;tr style=&quot;font-size: 12px;&quot;&gt;&lt;td style=&quot;font-size: 12px;&quot;&gt;Fatturato&lt;/td&gt;&lt;/tr&gt;&lt;tr&gt;&lt;td&gt;$$R$$&lt;/td&gt;&lt;/tr&gt;&lt;tr&gt;&lt;td&gt;$$2.100.000$$&lt;/td&gt;&lt;/tr&gt;&lt;/tbody&gt;&lt;/table&gt;" style="text;html=1;align=center;verticalAlign=middle;whiteSpace=wrap;rounded=0;fontSize=12;" parent="P_CY6DhgwNS566kBpn0b-1" vertex="1">
          <mxGeometry x="59.5" y="467" width="70" height="114" as="geometry" />
        </mxCell>
        <mxCell id="P_CY6DhgwNS566kBpn0b-13" value="" style="endArrow=classic;html=1;rounded=0;exitX=1;exitY=0.75;exitDx=0;exitDy=0;" parent="P_CY6DhgwNS566kBpn0b-1" source="P_CY6DhgwNS566kBpn0b-12" target="ZcrSmIuWh6w7hPy4VsqQ-6" edge="1">
          <mxGeometry width="50" height="50" relative="1" as="geometry">
            <mxPoint x="263" y="620" as="sourcePoint" />
            <mxPoint x="264" y="503" as="targetPoint" />
          </mxGeometry>
        </mxCell>
        <mxCell id="P_CY6DhgwNS566kBpn0b-14" value="Una azienda ha avuto, nell&#39;anno appena trascorso, un fatturato&#xa; di 2.100.000 euro ed un utile pari al 20\% del fatturato. Quali sono stati i costi?" style="text;whiteSpace=wrap;" parent="P_CY6DhgwNS566kBpn0b-1" vertex="1">
          <mxGeometry x="39" y="306" width="428" height="40" as="geometry" />
        </mxCell>
        <mxCell id="P_CY6DhgwNS566kBpn0b-15" value="&lt;table style=&quot;border: 1px solid rgb(51, 0, 0); border-collapse: collapse; font-size: 12px;&quot; border=&quot;1&quot;&gt;&lt;tbody style=&quot;font-size: 12px;&quot;&gt;&lt;tr style=&quot;font-size: 12px;&quot;&gt;&lt;td style=&quot;font-size: 12px;&quot;&gt;Num. Operai&lt;/td&gt;&lt;/tr&gt;&lt;tr style=&quot;font-size: 12px;&quot;&gt;&lt;td border=&quot;1&quot; style=&quot;font-size: 12px; border: 1px solid rgb(51, 0, 0); border-collapse: collapse;&quot;&gt;$$x + 1.000$$&lt;/td&gt;&lt;/tr&gt;&lt;/tbody&gt;&lt;/table&gt;" style="text;html=1;align=center;verticalAlign=middle;whiteSpace=wrap;rounded=0;fontSize=12;" parent="P_CY6DhgwNS566kBpn0b-1" vertex="1">
          <mxGeometry x="214" y="687" width="107" height="120" as="geometry" />
        </mxCell>
        <mxCell id="P_CY6DhgwNS566kBpn0b-16" value="&lt;table style=&quot;border: 1px solid rgb(51, 0, 0); border-collapse: collapse; font-size: 12px;&quot; border=&quot;1&quot;&gt;&lt;tbody style=&quot;font-size: 12px;&quot;&gt;&lt;tr style=&quot;font-size: 12px;&quot;&gt;&lt;td style=&quot;font-size: 12px;&quot;&gt;Num. Impiegati&lt;/td&gt;&lt;/tr&gt;&lt;tr style=&quot;font-size: 12px;&quot;&gt;&lt;td border=&quot;1&quot; style=&quot;font-size: 12px; border: 1px solid rgb(51, 0, 0); border-collapse: collapse;&quot;&gt;$$x$$&lt;/td&gt;&lt;/tr&gt;&lt;/tbody&gt;&lt;/table&gt;" style="text;html=1;align=center;verticalAlign=middle;whiteSpace=wrap;rounded=0;fontSize=12;" parent="P_CY6DhgwNS566kBpn0b-1" vertex="1">
          <mxGeometry x="70" y="711.75" width="89" height="70.5" as="geometry" />
        </mxCell>
        <mxCell id="P_CY6DhgwNS566kBpn0b-17" value="" style="endArrow=classic;html=1;rounded=0;exitX=1;exitY=0.5;exitDx=0;exitDy=0;entryX=0;entryY=0.5;entryDx=0;entryDy=0;" parent="P_CY6DhgwNS566kBpn0b-1" source="P_CY6DhgwNS566kBpn0b-16" target="P_CY6DhgwNS566kBpn0b-15" edge="1">
          <mxGeometry width="50" height="50" relative="1" as="geometry">
            <mxPoint x="244" y="922" as="sourcePoint" />
            <mxPoint x="294" y="872" as="targetPoint" />
          </mxGeometry>
        </mxCell>
        <mxCell id="P_CY6DhgwNS566kBpn0b-18" value="In una industria &#xa;ci sono operai ed impiegati; gli operai superano di $1000$ unità il numero degli impiegati." style="text;whiteSpace=wrap;" parent="P_CY6DhgwNS566kBpn0b-1" vertex="1">
          <mxGeometry x="73" y="654" width="387" height="40" as="geometry" />
        </mxCell>
        <mxCell id="P_CY6DhgwNS566kBpn0b-19" value="&lt;table style=&quot;border: 1px solid rgb(51, 0, 0); border-collapse: collapse; font-size: 12px;&quot; border=&quot;1&quot;&gt;&lt;tbody style=&quot;font-size: 12px;&quot;&gt;&lt;tr style=&quot;font-size: 12px;&quot;&gt;&lt;td style=&quot;font-size: 12px;&quot;&gt;Lungheza Palo in Terreno&lt;/td&gt;&lt;/tr&gt;&lt;tr style=&quot;font-size: 12px;&quot;&gt;&lt;td border=&quot;1&quot; style=&quot;font-size: 12px; border: 1px solid rgb(51, 0, 0); border-collapse: collapse;&quot;&gt;$$\dfrac{1}{3} \cdot x$$&lt;/td&gt;&lt;/tr&gt;&lt;/tbody&gt;&lt;/table&gt;" style="text;html=1;align=center;verticalAlign=middle;whiteSpace=wrap;rounded=0;fontSize=12;" parent="P_CY6DhgwNS566kBpn0b-1" vertex="1">
          <mxGeometry x="813" y="75" width="112" height="120" as="geometry" />
        </mxCell>
        <mxCell id="P_CY6DhgwNS566kBpn0b-20" value="&lt;table style=&quot;border: 1px solid rgb(51, 0, 0); border-collapse: collapse; font-size: 12px;&quot; border=&quot;1&quot;&gt;&lt;tbody style=&quot;font-size: 12px;&quot;&gt;&lt;tr style=&quot;font-size: 12px;&quot;&gt;&lt;td style=&quot;font-size: 12px;&quot;&gt;Lunghezza Palo&lt;/td&gt;&lt;/tr&gt;&lt;tr style=&quot;font-size: 12px;&quot;&gt;&lt;td border=&quot;1&quot; style=&quot;font-size: 12px; border: 1px solid rgb(51, 0, 0); border-collapse: collapse;&quot;&gt;$$x$$&lt;/td&gt;&lt;/tr&gt;&lt;/tbody&gt;&lt;/table&gt;" style="text;html=1;align=center;verticalAlign=middle;whiteSpace=wrap;rounded=0;fontSize=12;" parent="P_CY6DhgwNS566kBpn0b-1" vertex="1">
          <mxGeometry x="591" y="100" width="107" height="70" as="geometry" />
        </mxCell>
        <mxCell id="P_CY6DhgwNS566kBpn0b-21" value="" style="endArrow=classic;html=1;rounded=0;exitX=1;exitY=0.5;exitDx=0;exitDy=0;" parent="P_CY6DhgwNS566kBpn0b-1" source="P_CY6DhgwNS566kBpn0b-20" target="P_CY6DhgwNS566kBpn0b-19" edge="1">
          <mxGeometry width="50" height="50" relative="1" as="geometry">
            <mxPoint x="841" y="316" as="sourcePoint" />
            <mxPoint x="807" y="141" as="targetPoint" />
          </mxGeometry>
        </mxCell>
        <mxCell id="P_CY6DhgwNS566kBpn0b-22" value="Un terzo di un palo è conficcato nel terreno, un quarto è immerso nell’acqua e la lunghezza del palo è completata dalla parte che emerge." style="text;whiteSpace=wrap;" parent="P_CY6DhgwNS566kBpn0b-1" vertex="1">
          <mxGeometry x="573" y="17" width="554" height="40" as="geometry" />
        </mxCell>
        <mxCell id="P_CY6DhgwNS566kBpn0b-23" value="&lt;table style=&quot;border: 1px solid rgb(51, 0, 0); border-collapse: collapse; font-size: 12px;&quot; border=&quot;1&quot;&gt;&lt;tbody style=&quot;font-size: 12px;&quot;&gt;&lt;tr style=&quot;font-size: 12px;&quot;&gt;&lt;td style=&quot;font-size: 12px;&quot;&gt;Lunghezza Palo in Acqua&lt;/td&gt;&lt;/tr&gt;&lt;tr style=&quot;font-size: 12px;&quot;&gt;&lt;td border=&quot;1&quot; style=&quot;font-size: 12px; border: 1px solid rgb(51, 0, 0); border-collapse: collapse;&quot;&gt;$$\dfrac{1}{4} \cdot x$$&lt;/td&gt;&lt;/tr&gt;&lt;/tbody&gt;&lt;/table&gt;" style="text;html=1;align=center;verticalAlign=middle;whiteSpace=wrap;rounded=0;fontSize=12;" parent="P_CY6DhgwNS566kBpn0b-1" vertex="1">
          <mxGeometry x="807" y="214" width="107" height="120" as="geometry" />
        </mxCell>
        <mxCell id="P_CY6DhgwNS566kBpn0b-24" value="&lt;table style=&quot;border: 1px solid rgb(51, 0, 0); border-collapse: collapse; font-size: 12px;&quot; border=&quot;1&quot;&gt;&lt;tbody style=&quot;font-size: 12px;&quot;&gt;&lt;tr style=&quot;font-size: 12px;&quot;&gt;&lt;td style=&quot;font-size: 12px;&quot;&gt;Lunghezza Palo Emergente&lt;/td&gt;&lt;/tr&gt;&lt;tr style=&quot;font-size: 12px;&quot;&gt;&lt;td border=&quot;1&quot; style=&quot;font-size: 12px; border: 1px solid rgb(51, 0, 0); border-collapse: collapse;&quot;&gt;$$\dfrac{1}{3}x - \dfrac{1}{4}x$$&lt;/td&gt;&lt;/tr&gt;&lt;/tbody&gt;&lt;/table&gt;" style="text;html=1;align=center;verticalAlign=middle;whiteSpace=wrap;rounded=0;fontSize=12;" parent="P_CY6DhgwNS566kBpn0b-1" vertex="1">
          <mxGeometry x="999" y="110" width="147" height="102" as="geometry" />
        </mxCell>
        <mxCell id="P_CY6DhgwNS566kBpn0b-25" value="" style="endArrow=classic;html=1;rounded=0;exitX=1;exitY=0.75;exitDx=0;exitDy=0;entryX=0;entryY=0.5;entryDx=0;entryDy=0;" parent="P_CY6DhgwNS566kBpn0b-1" source="P_CY6DhgwNS566kBpn0b-20" target="P_CY6DhgwNS566kBpn0b-23" edge="1">
          <mxGeometry width="50" height="50" relative="1" as="geometry">
            <mxPoint x="708" y="151" as="sourcePoint" />
            <mxPoint x="821" y="151" as="targetPoint" />
          </mxGeometry>
        </mxCell>
        <mxCell id="P_CY6DhgwNS566kBpn0b-26" value="" style="endArrow=classic;html=1;rounded=0;exitX=1;exitY=0.5;exitDx=0;exitDy=0;entryX=-0.017;entryY=0.838;entryDx=0;entryDy=0;entryPerimeter=0;" parent="P_CY6DhgwNS566kBpn0b-1" source="P_CY6DhgwNS566kBpn0b-23" target="P_CY6DhgwNS566kBpn0b-24" edge="1">
          <mxGeometry width="50" height="50" relative="1" as="geometry">
            <mxPoint x="708" y="169" as="sourcePoint" />
            <mxPoint x="817" y="284" as="targetPoint" />
          </mxGeometry>
        </mxCell>
        <mxCell id="P_CY6DhgwNS566kBpn0b-28" value="" style="endArrow=classic;html=1;rounded=0;exitX=1;exitY=0.5;exitDx=0;exitDy=0;entryX=0;entryY=0.25;entryDx=0;entryDy=0;" parent="P_CY6DhgwNS566kBpn0b-1" source="P_CY6DhgwNS566kBpn0b-19" target="P_CY6DhgwNS566kBpn0b-24" edge="1">
          <mxGeometry width="50" height="50" relative="1" as="geometry">
            <mxPoint x="914" y="141" as="sourcePoint" />
            <mxPoint x="827" y="294" as="targetPoint" />
          </mxGeometry>
        </mxCell>
        <mxCell id="P_CY6DhgwNS566kBpn0b-30" value="" style="endArrow=classic;html=1;rounded=0;exitX=0.5;exitY=1;exitDx=0;exitDy=0;entryX=0.5;entryY=1;entryDx=0;entryDy=0;" parent="P_CY6DhgwNS566kBpn0b-1" source="P_CY6DhgwNS566kBpn0b-20" target="P_CY6DhgwNS566kBpn0b-24" edge="1">
          <mxGeometry width="50" height="50" relative="1" as="geometry">
            <mxPoint x="728" y="189" as="sourcePoint" />
            <mxPoint x="837" y="304" as="targetPoint" />
            <Array as="points">
              <mxPoint x="645" y="337" />
              <mxPoint x="1073" y="337" />
            </Array>
          </mxGeometry>
        </mxCell>
        <mxCell id="P_CY6DhgwNS566kBpn0b-35" value="&lt;table style=&quot;border: 1px solid rgb(51, 0, 0); border-collapse: collapse; font-size: 12px;&quot; border=&quot;1&quot;&gt;&lt;tbody style=&quot;font-size: 12px;&quot;&gt;&lt;tr style=&quot;font-size: 12px;&quot;&gt;&lt;td style=&quot;font-size: 12px;&quot;&gt;Perc. di Sconto&lt;/td&gt;&lt;/tr&gt;&lt;tr style=&quot;font-size: 12px;&quot;&gt;&lt;td border=&quot;1&quot; style=&quot;font-size: 12px; border: 1px solid rgb(51, 0, 0); border-collapse: collapse;&quot;&gt;$$s$$&lt;br&gt;&lt;/td&gt;&lt;/tr&gt;&lt;tr&gt;&lt;td&gt;$$\dfrac{P_l - P_s}{P_l}$$&lt;br&gt;&lt;/td&gt;&lt;/tr&gt;&lt;/tbody&gt;&lt;/table&gt;" style="text;html=1;align=center;verticalAlign=middle;whiteSpace=wrap;rounded=0;fontSize=12;" parent="P_CY6DhgwNS566kBpn0b-1" vertex="1">
          <mxGeometry x="916" y="445" width="77" height="164" as="geometry" />
        </mxCell>
        <mxCell id="P_CY6DhgwNS566kBpn0b-36" value="" style="endArrow=classic;html=1;rounded=0;" parent="P_CY6DhgwNS566kBpn0b-1" source="VnOTEWfJtzcOiFTm5S0--3" target="P_CY6DhgwNS566kBpn0b-35" edge="1">
          <mxGeometry width="50" height="50" relative="1" as="geometry">
            <mxPoint x="807" y="585" as="sourcePoint" />
            <mxPoint x="759" y="668.5" as="targetPoint" />
          </mxGeometry>
        </mxCell>
        <mxCell id="P_CY6DhgwNS566kBpn0b-38" value="" style="endArrow=classic;html=1;rounded=0;" parent="P_CY6DhgwNS566kBpn0b-1" source="VnOTEWfJtzcOiFTm5S0--0" target="VnOTEWfJtzcOiFTm5S0--3" edge="1">
          <mxGeometry width="50" height="50" relative="1" as="geometry">
            <mxPoint x="631.5" y="511.75" as="sourcePoint" />
            <mxPoint x="755" y="564.5" as="targetPoint" />
          </mxGeometry>
        </mxCell>
        <mxCell id="P_CY6DhgwNS566kBpn0b-39" value="Un vecchio video game è stato ribassato da 48 a 18 euro. Quale è il diagramma per il calcolo della percentuale di sconto?" style="text;whiteSpace=wrap;" parent="P_CY6DhgwNS566kBpn0b-1" vertex="1">
          <mxGeometry x="489" y="384" width="646" height="50" as="geometry" />
        </mxCell>
        <mxCell id="P_CY6DhgwNS566kBpn0b-40" value="" style="endArrow=classic;html=1;rounded=0;" parent="P_CY6DhgwNS566kBpn0b-1" source="VnOTEWfJtzcOiFTm5S0--1" target="VnOTEWfJtzcOiFTm5S0--3" edge="1">
          <mxGeometry width="50" height="50" relative="1" as="geometry">
            <mxPoint x="640" y="657" as="sourcePoint" />
            <mxPoint x="755" y="605.5" as="targetPoint" />
          </mxGeometry>
        </mxCell>
        <mxCell id="P_CY6DhgwNS566kBpn0b-41" value="" style="endArrow=classic;html=1;rounded=0;" parent="P_CY6DhgwNS566kBpn0b-1" source="VnOTEWfJtzcOiFTm5S0--1" target="P_CY6DhgwNS566kBpn0b-35" edge="1">
          <mxGeometry width="50" height="50" relative="1" as="geometry">
            <mxPoint x="640" y="682.5" as="sourcePoint" />
            <mxPoint x="752" y="616" as="targetPoint" />
          </mxGeometry>
        </mxCell>
        <mxCell id="GHU7KelN77qDAlMvZg0x-0" value="&lt;table style=&quot;border: 1px solid rgb(51, 0, 0); border-collapse: collapse; font-size: 12px;&quot; border=&quot;1&quot;&gt;&lt;tbody style=&quot;font-size: 12px;&quot;&gt;&lt;tr style=&quot;font-size: 12px;&quot;&gt;&lt;td style=&quot;font-size: 12px;&quot;&gt;Lunghezza Trave&lt;/td&gt;&lt;/tr&gt;&lt;tr style=&quot;font-size: 12px;&quot;&gt;&lt;td border=&quot;1&quot; style=&quot;font-size: 12px; border: 1px solid rgb(51, 0, 0); border-collapse: collapse;&quot;&gt;$$\dfrac{2}{3} \cdot x$$&lt;/td&gt;&lt;/tr&gt;&lt;tr&gt;&lt;td&gt;&lt;font color=&quot;#330000&quot;&gt;$$18$$&lt;/font&gt;&lt;/td&gt;&lt;/tr&gt;&lt;/tbody&gt;&lt;/table&gt;" style="text;html=1;align=center;verticalAlign=middle;whiteSpace=wrap;rounded=0;fontSize=12;" parent="P_CY6DhgwNS566kBpn0b-1" vertex="1">
          <mxGeometry x="809" y="-622" width="107" height="120" as="geometry" />
        </mxCell>
        <mxCell id="GHU7KelN77qDAlMvZg0x-1" value="&lt;table style=&quot;border: 1px solid rgb(51, 0, 0); border-collapse: collapse; font-size: 12px;&quot; border=&quot;1&quot;&gt;&lt;tbody style=&quot;font-size: 12px;&quot;&gt;&lt;tr style=&quot;font-size: 12px;&quot;&gt;&lt;td style=&quot;font-size: 12px;&quot;&gt;Lunghezza Camion&lt;/td&gt;&lt;/tr&gt;&lt;tr style=&quot;font-size: 12px;&quot;&gt;&lt;td border=&quot;1&quot; style=&quot;font-size: 12px; border: 1px solid rgb(51, 0, 0); border-collapse: collapse;&quot;&gt;$$x$$&lt;/td&gt;&lt;/tr&gt;&lt;tr&gt;&lt;td&gt;&lt;font color=&quot;#ff0000&quot;&gt;$$calc: 27$$&lt;/font&gt;&lt;/td&gt;&lt;/tr&gt;&lt;/tbody&gt;&lt;/table&gt;" style="text;html=1;align=center;verticalAlign=middle;whiteSpace=wrap;rounded=0;fontSize=12;" parent="P_CY6DhgwNS566kBpn0b-1" vertex="1">
          <mxGeometry x="593" y="-617.5" width="107" height="111" as="geometry" />
        </mxCell>
        <mxCell id="GHU7KelN77qDAlMvZg0x-2" value="" style="endArrow=classic;html=1;rounded=0;exitX=1;exitY=0.5;exitDx=0;exitDy=0;entryX=0;entryY=0.5;entryDx=0;entryDy=0;" parent="P_CY6DhgwNS566kBpn0b-1" source="GHU7KelN77qDAlMvZg0x-1" target="GHU7KelN77qDAlMvZg0x-0" edge="1">
          <mxGeometry width="50" height="50" relative="1" as="geometry">
            <mxPoint x="839" y="-387" as="sourcePoint" />
            <mxPoint x="889" y="-437" as="targetPoint" />
          </mxGeometry>
        </mxCell>
        <mxCell id="GHU7KelN77qDAlMvZg0x-3" value="Una trave di cemento è i due terzi del camion che la trasporta e la trave è lunga 18 m. Quanto è lungo il camion?" style="text;whiteSpace=wrap;" parent="P_CY6DhgwNS566kBpn0b-1" vertex="1">
          <mxGeometry x="585" y="-677" width="500" height="40" as="geometry" />
        </mxCell>
        <mxCell id="GHU7KelN77qDAlMvZg0x-6" value="&lt;table style=&quot;border: 1px solid rgb(51, 0, 0); border-collapse: collapse; font-size: 12px;&quot; border=&quot;1&quot;&gt;&lt;tbody style=&quot;font-size: 12px;&quot;&gt;&lt;tr style=&quot;font-size: 12px;&quot;&gt;&lt;td style=&quot;font-size: 12px;&quot;&gt;Costo&lt;/td&gt;&lt;/tr&gt;&lt;tr style=&quot;font-size: 12px;&quot;&gt;&lt;td border=&quot;1&quot; style=&quot;font-size: 12px; border: 1px solid rgb(51, 0, 0); border-collapse: collapse;&quot;&gt;$$C$$&lt;/td&gt;&lt;/tr&gt;&lt;tr&gt;&lt;td&gt;&lt;font color=&quot;#ff0000&quot;&gt;$$calc: 1.680.000 $$&lt;/font&gt;&lt;/td&gt;&lt;/tr&gt;&lt;/tbody&gt;&lt;/table&gt;" style="text;html=1;align=center;verticalAlign=middle;whiteSpace=wrap;rounded=0;fontSize=12;" parent="P_CY6DhgwNS566kBpn0b-1" vertex="1">
          <mxGeometry x="39" y="358" width="109" height="106" as="geometry" />
        </mxCell>
        <mxCell id="GHU7KelN77qDAlMvZg0x-7" value="" style="endArrow=classic;html=1;rounded=0;exitX=1;exitY=0.5;exitDx=0;exitDy=0;" parent="P_CY6DhgwNS566kBpn0b-1" source="GHU7KelN77qDAlMvZg0x-6" target="ZcrSmIuWh6w7hPy4VsqQ-14" edge="1">
          <mxGeometry width="50" height="50" relative="1" as="geometry">
            <mxPoint x="172" y="432" as="sourcePoint" />
            <mxPoint x="264" y="449" as="targetPoint" />
          </mxGeometry>
        </mxCell>
        <mxCell id="GHU7KelN77qDAlMvZg0x-9" value="" style="endArrow=classic;html=1;rounded=0;exitX=1;exitY=0.5;exitDx=0;exitDy=0;" parent="P_CY6DhgwNS566kBpn0b-1" source="P_CY6DhgwNS566kBpn0b-12" target="ZcrSmIuWh6w7hPy4VsqQ-6" edge="1">
          <mxGeometry width="50" height="50" relative="1" as="geometry">
            <mxPoint x="141" y="561" as="sourcePoint" />
            <mxPoint x="264" y="476" as="targetPoint" />
          </mxGeometry>
        </mxCell>
        <mxCell id="bp5BhqxVNxO3FnMuMvh0-0" value="&lt;table style=&quot;border: 1px solid rgb(51, 0, 0); border-collapse: collapse; font-size: 12px;&quot; border=&quot;1&quot;&gt;&lt;tbody style=&quot;font-size: 12px;&quot;&gt;&lt;tr style=&quot;font-size: 12px;&quot;&gt;&lt;td style=&quot;font-size: 12px;&quot;&gt;Rapporto Trave-Camion&lt;/td&gt;&lt;/tr&gt;&lt;tr style=&quot;font-size: 12px;&quot;&gt;&lt;td border=&quot;1&quot; style=&quot;font-size: 12px; border: 1px solid rgb(51, 0, 0); border-collapse: collapse;&quot;&gt;$$\dfrac{2}{3}$$&lt;/td&gt;&lt;/tr&gt;&lt;/tbody&gt;&lt;/table&gt;" style="text;html=1;align=center;verticalAlign=middle;whiteSpace=wrap;rounded=0;fontSize=12;" vertex="1" parent="P_CY6DhgwNS566kBpn0b-1">
          <mxGeometry x="75" y="-481" width="89" height="89.5" as="geometry" />
        </mxCell>
        <mxCell id="bp5BhqxVNxO3FnMuMvh0-1" value="" style="endArrow=classic;html=1;rounded=0;" edge="1" parent="P_CY6DhgwNS566kBpn0b-1" source="bp5BhqxVNxO3FnMuMvh0-0" target="P_CY6DhgwNS566kBpn0b-7">
          <mxGeometry width="50" height="50" relative="1" as="geometry">
            <mxPoint x="183" y="-559" as="sourcePoint" />
            <mxPoint x="296" y="-559" as="targetPoint" />
          </mxGeometry>
        </mxCell>
        <mxCell id="bp5BhqxVNxO3FnMuMvh0-2" value="&lt;table style=&quot;border: 1px solid rgb(51, 0, 0); border-collapse: collapse; font-size: 12px;&quot; border=&quot;1&quot;&gt;&lt;tbody style=&quot;font-size: 12px;&quot;&gt;&lt;tr style=&quot;font-size: 12px;&quot;&gt;&lt;td style=&quot;font-size: 12px;&quot;&gt;Rapporto Trave-Camion&lt;/td&gt;&lt;/tr&gt;&lt;tr style=&quot;font-size: 12px;&quot;&gt;&lt;td border=&quot;1&quot; style=&quot;font-size: 12px; border: 1px solid rgb(51, 0, 0); border-collapse: collapse;&quot;&gt;$$\dfrac{2}{3}$$&lt;/td&gt;&lt;/tr&gt;&lt;/tbody&gt;&lt;/table&gt;" style="text;html=1;align=center;verticalAlign=middle;whiteSpace=wrap;rounded=0;fontSize=12;" vertex="1" parent="P_CY6DhgwNS566kBpn0b-1">
          <mxGeometry x="600" y="-483" width="89" height="89.5" as="geometry" />
        </mxCell>
        <mxCell id="bp5BhqxVNxO3FnMuMvh0-3" value="" style="endArrow=classic;html=1;rounded=0;" edge="1" parent="P_CY6DhgwNS566kBpn0b-1" source="bp5BhqxVNxO3FnMuMvh0-2" target="GHU7KelN77qDAlMvZg0x-0">
          <mxGeometry width="50" height="50" relative="1" as="geometry">
            <mxPoint x="710" y="-552" as="sourcePoint" />
            <mxPoint x="819" y="-552" as="targetPoint" />
          </mxGeometry>
        </mxCell>
        <mxCell id="bp5BhqxVNxO3FnMuMvh0-4" value="&lt;table style=&quot;border: 1px solid rgb(51, 0, 0); border-collapse: collapse; font-size: 12px;&quot; border=&quot;1&quot;&gt;&lt;tbody style=&quot;font-size: 12px;&quot;&gt;&lt;tr style=&quot;font-size: 12px;&quot;&gt;&lt;td style=&quot;font-size: 12px;&quot;&gt;Lunghezza Trave&lt;/td&gt;&lt;/tr&gt;&lt;tr style=&quot;font-size: 12px;&quot;&gt;&lt;td border=&quot;1&quot; style=&quot;font-size: 12px; border: 1px solid rgb(51, 0, 0); border-collapse: collapse;&quot;&gt;$$\dfrac{2}{3} \cdot 18$$&lt;/td&gt;&lt;/tr&gt;&lt;tr&gt;&lt;td&gt;&lt;font color=&quot;#ff0000&quot;&gt;$$calc: 12$$&lt;/font&gt;&lt;/td&gt;&lt;/tr&gt;&lt;/tbody&gt;&lt;/table&gt;" style="text;html=1;align=center;verticalAlign=middle;whiteSpace=wrap;rounded=0;fontSize=12;" vertex="1" parent="P_CY6DhgwNS566kBpn0b-1">
          <mxGeometry x="284" y="-353" width="107" height="120" as="geometry" />
        </mxCell>
        <mxCell id="bp5BhqxVNxO3FnMuMvh0-6" value="" style="endArrow=classic;html=1;rounded=0;entryX=0;entryY=0.5;entryDx=0;entryDy=0;" edge="1" parent="P_CY6DhgwNS566kBpn0b-1" source="bp5BhqxVNxO3FnMuMvh0-9" target="bp5BhqxVNxO3FnMuMvh0-4">
          <mxGeometry width="50" height="50" relative="1" as="geometry">
            <mxPoint x="166" y="-293" as="sourcePoint" />
            <mxPoint x="364" y="-168" as="targetPoint" />
          </mxGeometry>
        </mxCell>
        <mxCell id="bp5BhqxVNxO3FnMuMvh0-7" value="&lt;table style=&quot;border: 1px solid rgb(51, 0, 0); border-collapse: collapse; font-size: 12px;&quot; border=&quot;1&quot;&gt;&lt;tbody style=&quot;font-size: 12px;&quot;&gt;&lt;tr style=&quot;font-size: 12px;&quot;&gt;&lt;td style=&quot;font-size: 12px;&quot;&gt;Rapporto Trave-Camion&lt;/td&gt;&lt;/tr&gt;&lt;tr style=&quot;font-size: 12px;&quot;&gt;&lt;td border=&quot;1&quot; style=&quot;font-size: 12px; border: 1px solid rgb(51, 0, 0); border-collapse: collapse;&quot;&gt;$$\dfrac{2}{3}$$&lt;/td&gt;&lt;/tr&gt;&lt;/tbody&gt;&lt;/table&gt;" style="text;html=1;align=center;verticalAlign=middle;whiteSpace=wrap;rounded=0;fontSize=12;" vertex="1" parent="P_CY6DhgwNS566kBpn0b-1">
          <mxGeometry x="73" y="-205" width="89" height="89.5" as="geometry" />
        </mxCell>
        <mxCell id="bp5BhqxVNxO3FnMuMvh0-8" value="" style="endArrow=classic;html=1;rounded=0;" edge="1" parent="P_CY6DhgwNS566kBpn0b-1" source="bp5BhqxVNxO3FnMuMvh0-7" target="bp5BhqxVNxO3FnMuMvh0-4">
          <mxGeometry width="50" height="50" relative="1" as="geometry">
            <mxPoint x="181" y="-283" as="sourcePoint" />
            <mxPoint x="294" y="-283" as="targetPoint" />
          </mxGeometry>
        </mxCell>
        <mxCell id="bp5BhqxVNxO3FnMuMvh0-9" value="&lt;table style=&quot;border: 1px solid rgb(51, 0, 0); border-collapse: collapse; font-size: 12px;&quot; border=&quot;1&quot;&gt;&lt;tbody style=&quot;font-size: 12px;&quot;&gt;&lt;tr style=&quot;font-size: 12px;&quot;&gt;&lt;td style=&quot;font-size: 12px;&quot;&gt;Lunghezza&lt;br&gt;Camion&lt;/td&gt;&lt;/tr&gt;&lt;tr style=&quot;font-size: 12px;&quot;&gt;&lt;td border=&quot;1&quot; style=&quot;font-size: 12px; border: 1px solid rgb(51, 0, 0); border-collapse: collapse;&quot;&gt;$$18$$&lt;/td&gt;&lt;/tr&gt;&lt;/tbody&gt;&lt;/table&gt;" style="text;html=1;align=center;verticalAlign=middle;whiteSpace=wrap;rounded=0;fontSize=12;" vertex="1" parent="P_CY6DhgwNS566kBpn0b-1">
          <mxGeometry x="82.5" y="-330" width="70" height="78.5" as="geometry" />
        </mxCell>
        <mxCell id="VnOTEWfJtzcOiFTm5S0--0" value="&lt;table style=&quot;border: 1px solid rgb(51, 0, 0); border-collapse: collapse; font-size: 12px;&quot; border=&quot;1&quot;&gt;&lt;tbody style=&quot;font-size: 12px;&quot;&gt;&lt;tr style=&quot;font-size: 12px;&quot;&gt;&lt;td style=&quot;font-size: 12px;&quot;&gt;Prezzo Listino&lt;/td&gt;&lt;/tr&gt;&lt;tr style=&quot;font-size: 12px;&quot;&gt;&lt;td border=&quot;1&quot; style=&quot;font-size: 12px; border: 1px solid rgb(51, 0, 0); border-collapse: collapse;&quot;&gt;$$P_l$$&lt;/td&gt;&lt;/tr&gt;&lt;/tbody&gt;&lt;/table&gt;" style="text;html=1;align=center;verticalAlign=middle;whiteSpace=wrap;rounded=0;fontSize=12;" vertex="1" parent="P_CY6DhgwNS566kBpn0b-1">
          <mxGeometry x="664" y="486" width="52" height="82" as="geometry" />
        </mxCell>
        <mxCell id="VnOTEWfJtzcOiFTm5S0--1" value="&lt;table style=&quot;border: 1px solid rgb(51, 0, 0); border-collapse: collapse; font-size: 12px;&quot; border=&quot;1&quot;&gt;&lt;tbody style=&quot;font-size: 12px;&quot;&gt;&lt;tr style=&quot;font-size: 12px;&quot;&gt;&lt;td style=&quot;font-size: 12px;&quot;&gt;Prezzo Scontato&lt;/td&gt;&lt;/tr&gt;&lt;tr style=&quot;font-size: 12px;&quot;&gt;&lt;td border=&quot;1&quot; style=&quot;font-size: 12px; border: 1px solid rgb(51, 0, 0); border-collapse: collapse;&quot;&gt;$$P_s$$&lt;/td&gt;&lt;/tr&gt;&lt;/tbody&gt;&lt;/table&gt;" style="text;html=1;align=center;verticalAlign=middle;whiteSpace=wrap;rounded=0;fontSize=12;" vertex="1" parent="P_CY6DhgwNS566kBpn0b-1">
          <mxGeometry x="664" y="629.75" width="52" height="82" as="geometry" />
        </mxCell>
        <mxCell id="VnOTEWfJtzcOiFTm5S0--3" value="&lt;table style=&quot;border: 1px solid rgb(51, 0, 0); border-collapse: collapse; font-size: 12px;&quot; border=&quot;1&quot;&gt;&lt;tbody style=&quot;font-size: 12px;&quot;&gt;&lt;tr style=&quot;font-size: 12px;&quot;&gt;&lt;td style=&quot;font-size: 12px;&quot;&gt;Sconto&lt;/td&gt;&lt;/tr&gt;&lt;tr style=&quot;font-size: 12px;&quot;&gt;&lt;td border=&quot;1&quot; style=&quot;font-size: 12px; border: 1px solid rgb(51, 0, 0); border-collapse: collapse;&quot;&gt;$$S$$&lt;/td&gt;&lt;/tr&gt;&lt;tr&gt;&lt;td&gt;$$P_l - P_s$$&lt;br&gt;&lt;/td&gt;&lt;/tr&gt;&lt;/tbody&gt;&lt;/table&gt;" style="text;html=1;align=center;verticalAlign=middle;whiteSpace=wrap;rounded=0;fontSize=12;" vertex="1" parent="P_CY6DhgwNS566kBpn0b-1">
          <mxGeometry x="774" y="481" width="60" height="94" as="geometry" />
        </mxCell>
        <mxCell id="ZcrSmIuWh6w7hPy4VsqQ-0" value="&lt;table style=&quot;border: 1px solid rgb(51, 0, 0); border-collapse: collapse; font-size: 12px;&quot; border=&quot;1&quot;&gt;&lt;tbody style=&quot;font-size: 12px;&quot;&gt;&lt;tr style=&quot;font-size: 12px;&quot;&gt;&lt;td style=&quot;font-size: 12px;&quot;&gt;Utile&lt;/td&gt;&lt;/tr&gt;&lt;tr&gt;&lt;td&gt;$$2.100.000-C$$&lt;/td&gt;&lt;/tr&gt;&lt;tr style=&quot;font-size: 12px;&quot;&gt;&lt;td border=&quot;1&quot; style=&quot;font-size: 12px; border: 1px solid rgb(51, 0, 0); border-collapse: collapse;&quot;&gt;$$20\% \cdot 2.100.000$$&lt;/td&gt;&lt;/tr&gt;&lt;/tbody&gt;&lt;/table&gt;" style="text;html=1;align=center;verticalAlign=middle;whiteSpace=wrap;rounded=0;fontSize=12;container=0;movable=1;resizable=1;rotatable=1;deletable=1;editable=1;locked=0;connectable=1;" vertex="1" parent="P_CY6DhgwNS566kBpn0b-1">
          <mxGeometry x="529" y="469.75" width="102" height="160" as="geometry" />
        </mxCell>
        <mxCell id="ZcrSmIuWh6w7hPy4VsqQ-1" value="" style="shape=table;startSize=0;container=1;collapsible=0;childLayout=tableLayout;fontSize=16;" vertex="1" parent="P_CY6DhgwNS566kBpn0b-1">
          <mxGeometry x="279" y="400" width="96" height="142.2999694824219" as="geometry" />
        </mxCell>
        <mxCell id="ZcrSmIuWh6w7hPy4VsqQ-2" value="" style="shape=tableRow;horizontal=0;startSize=0;swimlaneHead=0;swimlaneBody=0;strokeColor=inherit;top=0;left=0;bottom=0;right=0;collapsible=0;dropTarget=0;fillColor=none;points=[[0,0.5],[1,0.5]];portConstraint=eastwest;fontSize=16;" vertex="1" parent="ZcrSmIuWh6w7hPy4VsqQ-1">
          <mxGeometry width="96" height="23" as="geometry" />
        </mxCell>
        <mxCell id="ZcrSmIuWh6w7hPy4VsqQ-3" value="&lt;font style=&quot;font-size: 12px;&quot; face=&quot;Verdana&quot;&gt;Utile&lt;/font&gt;" style="shape=partialRectangle;html=1;whiteSpace=wrap;connectable=0;strokeColor=inherit;overflow=hidden;fillColor=none;top=0;left=0;bottom=0;right=0;pointerEvents=1;fontSize=16;" vertex="1" parent="ZcrSmIuWh6w7hPy4VsqQ-2">
          <mxGeometry width="96" height="23" as="geometry">
            <mxRectangle width="96" height="23" as="alternateBounds" />
          </mxGeometry>
        </mxCell>
        <mxCell id="ZcrSmIuWh6w7hPy4VsqQ-14" style="shape=tableRow;horizontal=0;startSize=0;swimlaneHead=0;swimlaneBody=0;strokeColor=inherit;top=0;left=0;bottom=0;right=0;collapsible=0;dropTarget=0;fillColor=none;points=[[0,0.5],[1,0.5]];portConstraint=eastwest;fontSize=16;" vertex="1" parent="ZcrSmIuWh6w7hPy4VsqQ-1">
          <mxGeometry y="23" width="96" height="40" as="geometry" />
        </mxCell>
        <mxCell id="ZcrSmIuWh6w7hPy4VsqQ-15" value="&lt;font style=&quot;font-size: 12px;&quot;&gt;$$2.100.000-C$$&lt;/font&gt;" style="shape=partialRectangle;html=1;whiteSpace=wrap;connectable=0;strokeColor=inherit;overflow=hidden;fillColor=none;top=0;left=0;bottom=0;right=0;pointerEvents=1;fontSize=16;" vertex="1" parent="ZcrSmIuWh6w7hPy4VsqQ-14">
          <mxGeometry width="96" height="40" as="geometry">
            <mxRectangle width="96" height="40" as="alternateBounds" />
          </mxGeometry>
        </mxCell>
        <mxCell id="ZcrSmIuWh6w7hPy4VsqQ-6" value="" style="shape=tableRow;horizontal=0;startSize=0;swimlaneHead=0;swimlaneBody=0;strokeColor=inherit;top=0;left=0;bottom=0;right=0;collapsible=0;dropTarget=0;fillColor=none;points=[[0,0.5],[1,0.5]];portConstraint=eastwest;fontSize=16;" vertex="1" parent="ZcrSmIuWh6w7hPy4VsqQ-1">
          <mxGeometry y="63" width="96" height="39" as="geometry" />
        </mxCell>
        <mxCell id="ZcrSmIuWh6w7hPy4VsqQ-7" value="&lt;span style=&quot;font-size: 12px;&quot;&gt;$$20\% \cdot 2.100.000$$&lt;/span&gt;" style="shape=partialRectangle;html=1;whiteSpace=wrap;connectable=0;strokeColor=inherit;overflow=hidden;fillColor=none;top=0;left=0;bottom=0;right=0;pointerEvents=1;fontSize=16;" vertex="1" parent="ZcrSmIuWh6w7hPy4VsqQ-6">
          <mxGeometry width="96" height="39" as="geometry">
            <mxRectangle width="96" height="39" as="alternateBounds" />
          </mxGeometry>
        </mxCell>
        <mxCell id="ZcrSmIuWh6w7hPy4VsqQ-10" value="" style="shape=tableRow;horizontal=0;startSize=0;swimlaneHead=0;swimlaneBody=0;strokeColor=inherit;top=0;left=0;bottom=0;right=0;collapsible=0;dropTarget=0;fillColor=none;points=[[0,0.5],[1,0.5]];portConstraint=eastwest;fontSize=16;" vertex="1" parent="ZcrSmIuWh6w7hPy4VsqQ-1">
          <mxGeometry y="102" width="96" height="40" as="geometry" />
        </mxCell>
        <mxCell id="ZcrSmIuWh6w7hPy4VsqQ-11" value="&lt;font style=&quot;font-size: 12px; color: rgb(0, 0, 0);&quot;&gt;$$calc:420.000$$&lt;/font&gt;" style="shape=partialRectangle;html=1;whiteSpace=wrap;connectable=0;strokeColor=inherit;overflow=hidden;fillColor=none;top=0;left=0;bottom=0;right=0;pointerEvents=1;fontSize=16;" vertex="1" parent="ZcrSmIuWh6w7hPy4VsqQ-10">
          <mxGeometry width="96" height="40" as="geometry">
            <mxRectangle width="96" height="40" as="alternateBounds" />
          </mxGeometry>
        </mxCell>
      </root>
    </mxGraphModel>
  </diagram>
  <diagram id="UBjQt5PgEgVu9Va7JAI5" name="Diagrammi-3">
    <mxGraphModel dx="901" dy="527" grid="0" gridSize="10" guides="1" tooltips="1" connect="1" arrows="1" fold="1" page="1" pageScale="1" pageWidth="1169" pageHeight="827" math="1" shadow="0">
      <root>
        <mxCell id="0" />
        <mxCell id="1" parent="0" />
        <mxCell id="Qod55mCRQEA2lmUf-Zoc-2" value="&lt;table style=&quot;border: 1px solid rgb(51, 0, 0); border-collapse: collapse; font-size: 12px;&quot; border=&quot;1&quot;&gt;&lt;tbody style=&quot;font-size: 12px;&quot;&gt;&lt;tr style=&quot;font-size: 12px;&quot;&gt;&lt;td style=&quot;font-size: 12px;&quot;&gt;Numero Impiegati&lt;/td&gt;&lt;/tr&gt;&lt;tr style=&quot;font-size: 12px;&quot;&gt;&lt;td border=&quot;1&quot; style=&quot;font-size: 12px; border: 1px solid rgb(51, 0, 0); border-collapse: collapse;&quot;&gt;$$x$$&lt;/td&gt;&lt;/tr&gt;&lt;tr&gt;&lt;td&gt;&lt;font color=&quot;#ff0000&quot;&gt;$$calc: 250$$&lt;/font&gt;&lt;/td&gt;&lt;/tr&gt;&lt;/tbody&gt;&lt;/table&gt;" style="text;html=1;align=center;verticalAlign=middle;whiteSpace=wrap;rounded=0;fontSize=12;" parent="1" vertex="1">
          <mxGeometry x="73" y="105.75" width="91" height="91.25" as="geometry" />
        </mxCell>
        <mxCell id="Qod55mCRQEA2lmUf-Zoc-3" value="" style="endArrow=classic;html=1;rounded=0;exitX=1;exitY=0.5;exitDx=0;exitDy=0;entryX=0;entryY=0.5;entryDx=0;entryDy=0;" parent="1" source="Qod55mCRQEA2lmUf-Zoc-2" target="KBhPziEbL2yX5BmD8qqc-4" edge="1">
          <mxGeometry width="50" height="50" relative="1" as="geometry">
            <mxPoint x="284" y="313" as="sourcePoint" />
            <mxPoint x="271.0000000000002" y="122.13" as="targetPoint" />
          </mxGeometry>
        </mxCell>
        <mxCell id="Qod55mCRQEA2lmUf-Zoc-4" value="In una industria ci sono operai ed impiegati; gli operai superano di $1000$ unità il numero degli impiegati e sono anche il quintuplo degli impiegati. Disegna il diagramma delle dipendenze." style="text;whiteSpace=wrap;" parent="1" vertex="1">
          <mxGeometry x="77" y="19" width="600" height="40" as="geometry" />
        </mxCell>
        <mxCell id="dY0KiyXm7Godqmd0UZm6-1" value="" style="endArrow=classic;html=1;rounded=0;exitX=1;exitY=0.5;exitDx=0;exitDy=0;" parent="1" source="Qod55mCRQEA2lmUf-Zoc-2" target="KBhPziEbL2yX5BmD8qqc-6" edge="1">
          <mxGeometry width="50" height="50" relative="1" as="geometry">
            <mxPoint x="179" y="148" as="sourcePoint" />
            <mxPoint x="271.0000000000002" y="180.6300000000001" as="targetPoint" />
          </mxGeometry>
        </mxCell>
        <mxCell id="pXZOqV1Kfd0qvcbDX1Bi-1" value="&lt;table style=&quot;border: 1px solid rgb(51, 0, 0); border-collapse: collapse; font-size: 12px;&quot; border=&quot;1&quot;&gt;&lt;tbody style=&quot;font-size: 12px;&quot;&gt;&lt;tr style=&quot;font-size: 12px;&quot;&gt;&lt;td style=&quot;font-size: 12px;&quot;&gt;Lungheza Palo in Terreno&lt;/td&gt;&lt;/tr&gt;&lt;tr style=&quot;font-size: 12px;&quot;&gt;&lt;td border=&quot;1&quot; style=&quot;font-size: 12px; border: 1px solid rgb(51, 0, 0); border-collapse: collapse;&quot;&gt;$$\dfrac{1}{3} \cdot x$$&lt;/td&gt;&lt;/tr&gt;&lt;tr&gt;&lt;td&gt;&lt;font style=&quot;color: rgb(0, 0, 0);&quot;&gt;$$calc:4$$&lt;/font&gt;&lt;/td&gt;&lt;/tr&gt;&lt;/tbody&gt;&lt;/table&gt;" style="text;html=1;align=center;verticalAlign=middle;whiteSpace=wrap;rounded=0;fontSize=12;" parent="1" vertex="1">
          <mxGeometry x="235" y="339" width="112" height="120" as="geometry" />
        </mxCell>
        <mxCell id="pXZOqV1Kfd0qvcbDX1Bi-2" value="&lt;table style=&quot;border: 1px solid rgb(51, 0, 0); border-collapse: collapse; font-size: 12px;&quot; border=&quot;1&quot;&gt;&lt;tbody style=&quot;font-size: 12px;&quot;&gt;&lt;tr style=&quot;font-size: 12px;&quot;&gt;&lt;td style=&quot;font-size: 12px;&quot;&gt;Lunghezza Palo&lt;/td&gt;&lt;/tr&gt;&lt;tr style=&quot;font-size: 12px;&quot;&gt;&lt;td border=&quot;1&quot; style=&quot;font-size: 12px; border: 1px solid rgb(51, 0, 0); border-collapse: collapse;&quot;&gt;$$x$$&lt;/td&gt;&lt;/tr&gt;&lt;tr&gt;&lt;td&gt;&lt;font color=&quot;#ff0000&quot;&gt;$$calc: 12$$&lt;/font&gt;&lt;/td&gt;&lt;/tr&gt;&lt;/tbody&gt;&lt;/table&gt;" style="text;html=1;align=center;verticalAlign=middle;whiteSpace=wrap;rounded=0;fontSize=12;" parent="1" vertex="1">
          <mxGeometry x="16" y="342" width="107" height="114" as="geometry" />
        </mxCell>
        <mxCell id="pXZOqV1Kfd0qvcbDX1Bi-3" value="" style="endArrow=classic;html=1;rounded=0;exitX=1;exitY=0.5;exitDx=0;exitDy=0;" parent="1" source="pXZOqV1Kfd0qvcbDX1Bi-2" target="pXZOqV1Kfd0qvcbDX1Bi-1" edge="1">
          <mxGeometry width="50" height="50" relative="1" as="geometry">
            <mxPoint x="263" y="580" as="sourcePoint" />
            <mxPoint x="229" y="405" as="targetPoint" />
          </mxGeometry>
        </mxCell>
        <mxCell id="pXZOqV1Kfd0qvcbDX1Bi-4" value="Un terzo di un palo è conficcato nel terreno ed un quarto è immerso nell’acqua. Determina la lunghezza del palo sapendo che la parte che emerge è lunga 5 metri." style="text;whiteSpace=wrap;" parent="1" vertex="1">
          <mxGeometry x="25" y="281" width="554" height="40" as="geometry" />
        </mxCell>
        <mxCell id="pXZOqV1Kfd0qvcbDX1Bi-5" value="&lt;table style=&quot;border: 1px solid rgb(51, 0, 0); border-collapse: collapse; font-size: 12px;&quot; border=&quot;1&quot;&gt;&lt;tbody style=&quot;font-size: 12px;&quot;&gt;&lt;tr style=&quot;font-size: 12px;&quot;&gt;&lt;td style=&quot;font-size: 12px;&quot;&gt;Lunghezza Palo in Acqua&lt;/td&gt;&lt;/tr&gt;&lt;tr style=&quot;font-size: 12px;&quot;&gt;&lt;td border=&quot;1&quot; style=&quot;font-size: 12px; border: 1px solid rgb(51, 0, 0); border-collapse: collapse;&quot;&gt;$$\dfrac{1}{4} \cdot x$$&lt;/td&gt;&lt;/tr&gt;&lt;tr&gt;&lt;td&gt;&lt;font style=&quot;color: rgb(0, 0, 0);&quot;&gt;$$calc:3$$&lt;/font&gt;&lt;/td&gt;&lt;/tr&gt;&lt;/tbody&gt;&lt;/table&gt;" style="text;html=1;align=center;verticalAlign=middle;whiteSpace=wrap;rounded=0;fontSize=12;" parent="1" vertex="1">
          <mxGeometry x="237.5" y="507" width="107" height="120" as="geometry" />
        </mxCell>
        <mxCell id="pXZOqV1Kfd0qvcbDX1Bi-6" value="&lt;table style=&quot;border: 1px solid rgb(51, 0, 0); border-collapse: collapse; font-size: 12px;&quot; border=&quot;1&quot;&gt;&lt;tbody style=&quot;font-size: 12px;&quot;&gt;&lt;tr style=&quot;font-size: 12px;&quot;&gt;&lt;td style=&quot;font-size: 12px;&quot;&gt;Lunghezza Palo Emergente&lt;/td&gt;&lt;/tr&gt;&lt;tr style=&quot;font-size: 12px;&quot;&gt;&lt;td border=&quot;1&quot; style=&quot;font-size: 12px; border: 1px solid rgb(51, 0, 0); border-collapse: collapse;&quot;&gt;$$x - \dfrac{1}{3}x - \dfrac{1}{4}x$$&lt;/td&gt;&lt;/tr&gt;&lt;tr&gt;&lt;td&gt;$$5$$&lt;/td&gt;&lt;/tr&gt;&lt;/tbody&gt;&lt;/table&gt;" style="text;html=1;align=center;verticalAlign=middle;whiteSpace=wrap;rounded=0;fontSize=12;" parent="1" vertex="1">
          <mxGeometry x="423" y="363" width="147" height="142" as="geometry" />
        </mxCell>
        <mxCell id="pXZOqV1Kfd0qvcbDX1Bi-7" value="" style="endArrow=classic;html=1;rounded=0;exitX=1;exitY=0.75;exitDx=0;exitDy=0;entryX=0;entryY=0.5;entryDx=0;entryDy=0;" parent="1" source="pXZOqV1Kfd0qvcbDX1Bi-2" target="pXZOqV1Kfd0qvcbDX1Bi-5" edge="1">
          <mxGeometry width="50" height="50" relative="1" as="geometry">
            <mxPoint x="130" y="415" as="sourcePoint" />
            <mxPoint x="243" y="415" as="targetPoint" />
          </mxGeometry>
        </mxCell>
        <mxCell id="pXZOqV1Kfd0qvcbDX1Bi-8" value="" style="endArrow=classic;html=1;rounded=0;exitX=1;exitY=0.5;exitDx=0;exitDy=0;entryX=-0.017;entryY=0.838;entryDx=0;entryDy=0;entryPerimeter=0;" parent="1" source="pXZOqV1Kfd0qvcbDX1Bi-5" target="pXZOqV1Kfd0qvcbDX1Bi-6" edge="1">
          <mxGeometry width="50" height="50" relative="1" as="geometry">
            <mxPoint x="130" y="433" as="sourcePoint" />
            <mxPoint x="239" y="548" as="targetPoint" />
          </mxGeometry>
        </mxCell>
        <mxCell id="pXZOqV1Kfd0qvcbDX1Bi-10" value="" style="endArrow=classic;html=1;rounded=0;exitX=1;exitY=0.5;exitDx=0;exitDy=0;entryX=0;entryY=0.25;entryDx=0;entryDy=0;" parent="1" source="pXZOqV1Kfd0qvcbDX1Bi-1" target="pXZOqV1Kfd0qvcbDX1Bi-6" edge="1">
          <mxGeometry width="50" height="50" relative="1" as="geometry">
            <mxPoint x="336" y="405" as="sourcePoint" />
            <mxPoint x="249" y="558" as="targetPoint" />
          </mxGeometry>
        </mxCell>
        <mxCell id="pXZOqV1Kfd0qvcbDX1Bi-12" value="" style="endArrow=classic;html=1;rounded=0;exitX=0.5;exitY=1;exitDx=0;exitDy=0;entryX=0.5;entryY=1;entryDx=0;entryDy=0;" parent="1" source="pXZOqV1Kfd0qvcbDX1Bi-2" target="pXZOqV1Kfd0qvcbDX1Bi-6" edge="1">
          <mxGeometry width="50" height="50" relative="1" as="geometry">
            <mxPoint x="150" y="453" as="sourcePoint" />
            <mxPoint x="259" y="568" as="targetPoint" />
            <Array as="points">
              <mxPoint x="67" y="670" />
              <mxPoint x="498" y="670" />
            </Array>
          </mxGeometry>
        </mxCell>
        <mxCell id="uSxWmm8aHSzn1RA8kX1d-1" value="&lt;table style=&quot;border: 1px solid rgb(51, 0, 0); border-collapse: collapse; font-size: 12px;&quot; border=&quot;1&quot;&gt;&lt;tbody style=&quot;font-size: 12px;&quot;&gt;&lt;tr style=&quot;font-size: 12px;&quot;&gt;&lt;td style=&quot;font-size: 12px;&quot;&gt;Prezzo Scontato&lt;/td&gt;&lt;/tr&gt;&lt;tr style=&quot;font-size: 12px;&quot;&gt;&lt;td border=&quot;1&quot; style=&quot;font-size: 12px; border: 1px solid rgb(51, 0, 0); border-collapse: collapse;&quot;&gt;$$P_s$$&lt;/td&gt;&lt;/tr&gt;&lt;tr&gt;&lt;td&gt;$$18$$&lt;/td&gt;&lt;/tr&gt;&lt;/tbody&gt;&lt;/table&gt;" style="text;html=1;align=center;verticalAlign=middle;whiteSpace=wrap;rounded=0;fontSize=12;" parent="1" vertex="1">
          <mxGeometry x="671.5" y="421" width="102" height="102" as="geometry" />
        </mxCell>
        <mxCell id="uSxWmm8aHSzn1RA8kX1d-2" value="&lt;table style=&quot;border: 1px solid rgb(51, 0, 0); border-collapse: collapse; font-size: 12px;&quot; border=&quot;1&quot;&gt;&lt;tbody style=&quot;font-size: 12px;&quot;&gt;&lt;tr style=&quot;font-size: 12px;&quot;&gt;&lt;td style=&quot;font-size: 12px;&quot;&gt;Prezzo Listino&lt;/td&gt;&lt;/tr&gt;&lt;tr style=&quot;font-size: 12px;&quot;&gt;&lt;td border=&quot;1&quot; style=&quot;font-size: 12px; border: 1px solid rgb(51, 0, 0); border-collapse: collapse;&quot;&gt;$$P_l$$&lt;/td&gt;&lt;/tr&gt;&lt;tr&gt;&lt;td&gt;$$48$$&lt;/td&gt;&lt;/tr&gt;&lt;/tbody&gt;&lt;/table&gt;" style="text;html=1;align=center;verticalAlign=middle;whiteSpace=wrap;rounded=0;fontSize=12;" parent="1" vertex="1">
          <mxGeometry x="669" y="203" width="107" height="70" as="geometry" />
        </mxCell>
        <mxCell id="uSxWmm8aHSzn1RA8kX1d-4" value="&lt;table style=&quot;border: 1px solid rgb(51, 0, 0); border-collapse: collapse; font-size: 12px;&quot; border=&quot;1&quot;&gt;&lt;tbody style=&quot;font-size: 12px;&quot;&gt;&lt;tr style=&quot;font-size: 12px;&quot;&gt;&lt;td style=&quot;font-size: 12px;&quot;&gt;Perc. &lt;br&gt;di Sconto&lt;/td&gt;&lt;/tr&gt;&lt;tr style=&quot;font-size: 12px;&quot;&gt;&lt;td border=&quot;1&quot; style=&quot;font-size: 12px; border: 1px solid rgb(51, 0, 0); border-collapse: collapse;&quot;&gt;$$s$$&lt;br&gt;&lt;/td&gt;&lt;/tr&gt;&lt;tr&gt;&lt;td&gt;$$\dfrac{P_l - P_s}{P_l}$$&lt;br&gt;&lt;/td&gt;&lt;/tr&gt;&lt;tr&gt;&lt;td&gt;&lt;font color=&quot;#ff0000&quot;&gt;$$calc: 62,5\%$$&lt;/font&gt;&lt;/td&gt;&lt;/tr&gt;&lt;/tbody&gt;&lt;/table&gt;" style="text;html=1;align=center;verticalAlign=middle;whiteSpace=wrap;rounded=0;fontSize=12;" parent="1" vertex="1">
          <mxGeometry x="1003" y="240.5" width="90" height="191" as="geometry" />
        </mxCell>
        <mxCell id="uSxWmm8aHSzn1RA8kX1d-5" value="" style="endArrow=classic;html=1;rounded=0;" parent="1" source="HIAjSP5uTAePqwb-mXXt-1" target="uSxWmm8aHSzn1RA8kX1d-4" edge="1">
          <mxGeometry width="50" height="50" relative="1" as="geometry">
            <mxPoint x="908" y="336" as="sourcePoint" />
            <mxPoint x="895" y="419.5" as="targetPoint" />
          </mxGeometry>
        </mxCell>
        <mxCell id="uSxWmm8aHSzn1RA8kX1d-7" value="" style="endArrow=classic;html=1;rounded=0;exitX=1;exitY=0.5;exitDx=0;exitDy=0;" parent="1" source="uSxWmm8aHSzn1RA8kX1d-2" target="HIAjSP5uTAePqwb-mXXt-1" edge="1">
          <mxGeometry width="50" height="50" relative="1" as="geometry">
            <mxPoint x="880" y="196" as="sourcePoint" />
            <mxPoint x="843" y="315.5" as="targetPoint" />
          </mxGeometry>
        </mxCell>
        <mxCell id="uSxWmm8aHSzn1RA8kX1d-8" value="Un vecchio video game è stato ribassato da 48 a 18 euro. Quale è il diagramma per il calcolo della percentuale di sconto?" style="text;whiteSpace=wrap;" parent="1" vertex="1">
          <mxGeometry x="625" y="135" width="533" height="50" as="geometry" />
        </mxCell>
        <mxCell id="uSxWmm8aHSzn1RA8kX1d-9" value="" style="endArrow=classic;html=1;rounded=0;exitX=1;exitY=0.5;exitDx=0;exitDy=0;" parent="1" source="uSxWmm8aHSzn1RA8kX1d-1" target="HIAjSP5uTAePqwb-mXXt-1" edge="1">
          <mxGeometry width="50" height="50" relative="1" as="geometry">
            <mxPoint x="786" y="281" as="sourcePoint" />
            <mxPoint x="843" y="356.5" as="targetPoint" />
          </mxGeometry>
        </mxCell>
        <mxCell id="uSxWmm8aHSzn1RA8kX1d-10" value="" style="endArrow=classic;html=1;rounded=0;exitX=1;exitY=0.75;exitDx=0;exitDy=0;" parent="1" source="uSxWmm8aHSzn1RA8kX1d-1" target="uSxWmm8aHSzn1RA8kX1d-4" edge="1">
          <mxGeometry width="50" height="50" relative="1" as="geometry">
            <mxPoint x="786" y="418" as="sourcePoint" />
            <mxPoint x="888" y="367" as="targetPoint" />
          </mxGeometry>
        </mxCell>
        <mxCell id="iQfHSu2NmIrTFK9K3Dqs-1" value="&lt;table style=&quot;border: 1px solid rgb(51, 0, 0); border-collapse: collapse; font-size: 12px;&quot; border=&quot;1&quot;&gt;&lt;tbody style=&quot;font-size: 12px;&quot;&gt;&lt;tr style=&quot;font-size: 12px;&quot;&gt;&lt;td style=&quot;font-size: 12px;&quot;&gt;Eta Maria&lt;/td&gt;&lt;/tr&gt;&lt;tr style=&quot;font-size: 12px;&quot;&gt;&lt;td border=&quot;1&quot; style=&quot;font-size: 12px; border: 1px solid rgb(51, 0, 0); border-collapse: collapse;&quot;&gt;$$2 \cdot f$$&lt;/td&gt;&lt;/tr&gt;&lt;tr style=&quot;font-size: 12px;&quot;&gt;&lt;td style=&quot;font-size: 12px;&quot;&gt;$$50$$&lt;/td&gt;&lt;/tr&gt;&lt;/tbody&gt;&lt;/table&gt;" style="text;html=1;align=center;verticalAlign=middle;whiteSpace=wrap;rounded=0;fontSize=12;" parent="1" vertex="1">
          <mxGeometry x="880" y="595" width="107" height="120" as="geometry" />
        </mxCell>
        <mxCell id="iQfHSu2NmIrTFK9K3Dqs-2" value="&lt;table style=&quot;border: 1px solid rgb(51, 0, 0); border-collapse: collapse; font-size: 12px;&quot; border=&quot;1&quot;&gt;&lt;tbody style=&quot;font-size: 12px;&quot;&gt;&lt;tr style=&quot;font-size: 12px;&quot;&gt;&lt;td style=&quot;font-size: 12px;&quot;&gt;Eta Figlia Maria&lt;/td&gt;&lt;/tr&gt;&lt;tr style=&quot;font-size: 12px;&quot;&gt;&lt;td border=&quot;1&quot; style=&quot;font-size: 12px; border: 1px solid rgb(51, 0, 0); border-collapse: collapse;&quot;&gt;$$f$$&lt;/td&gt;&lt;/tr&gt;&lt;tr&gt;&lt;td&gt;&lt;font color=&quot;#ff0000&quot;&gt;$$calc: 25$$&lt;/font&gt;&lt;/td&gt;&lt;/tr&gt;&lt;/tbody&gt;&lt;/table&gt;" style="text;html=1;align=center;verticalAlign=middle;whiteSpace=wrap;rounded=0;fontSize=12;" parent="1" vertex="1">
          <mxGeometry x="698" y="601.5" width="107" height="107" as="geometry" />
        </mxCell>
        <mxCell id="iQfHSu2NmIrTFK9K3Dqs-3" value="" style="endArrow=classic;html=1;rounded=0;exitX=1;exitY=0.5;exitDx=0;exitDy=0;entryX=0;entryY=0.5;entryDx=0;entryDy=0;" parent="1" source="iQfHSu2NmIrTFK9K3Dqs-2" target="iQfHSu2NmIrTFK9K3Dqs-1" edge="1">
          <mxGeometry width="50" height="50" relative="1" as="geometry">
            <mxPoint x="910" y="830" as="sourcePoint" />
            <mxPoint x="960" y="780" as="targetPoint" />
          </mxGeometry>
        </mxCell>
        <mxCell id="iQfHSu2NmIrTFK9K3Dqs-5" value="Maria ha 50 anni ed ha il doppio degli anni di sua figlia. Quanti anni ha la figlia di Maria?" style="text;whiteSpace=wrap;" parent="1" vertex="1">
          <mxGeometry x="590" y="555" width="500" height="40" as="geometry" />
        </mxCell>
        <mxCell id="HIAjSP5uTAePqwb-mXXt-1" value="&lt;table style=&quot;border: 1px solid rgb(51, 0, 0); border-collapse: collapse; font-size: 12px;&quot; border=&quot;1&quot;&gt;&lt;tbody style=&quot;font-size: 12px;&quot;&gt;&lt;tr style=&quot;font-size: 12px;&quot;&gt;&lt;td style=&quot;font-size: 12px;&quot;&gt;Sconto&lt;/td&gt;&lt;/tr&gt;&lt;tr style=&quot;font-size: 12px;&quot;&gt;&lt;td border=&quot;1&quot; style=&quot;font-size: 12px; border: 1px solid rgb(51, 0, 0); border-collapse: collapse;&quot;&gt;$$S$$&lt;br&gt;&lt;/td&gt;&lt;/tr&gt;&lt;tr&gt;&lt;td&gt;$$P_l - P_s$$&lt;br&gt;&lt;/td&gt;&lt;/tr&gt;&lt;tr&gt;&lt;td&gt;&lt;font color=&quot;#ff0000&quot;&gt;$$calc: 30$$&lt;/font&gt;&lt;/td&gt;&lt;/tr&gt;&lt;/tbody&gt;&lt;/table&gt;" style="text;html=1;align=center;verticalAlign=middle;whiteSpace=wrap;rounded=0;fontSize=12;" parent="1" vertex="1">
          <mxGeometry x="835" y="235.5" width="55" height="191" as="geometry" />
        </mxCell>
        <mxCell id="KBhPziEbL2yX5BmD8qqc-1" value="" style="shape=table;startSize=0;container=1;collapsible=0;childLayout=tableLayout;fontSize=16;" vertex="1" parent="1">
          <mxGeometry x="289" y="83" width="96" height="142.2999694824219" as="geometry" />
        </mxCell>
        <mxCell id="KBhPziEbL2yX5BmD8qqc-2" value="" style="shape=tableRow;horizontal=0;startSize=0;swimlaneHead=0;swimlaneBody=0;strokeColor=inherit;top=0;left=0;bottom=0;right=0;collapsible=0;dropTarget=0;fillColor=none;points=[[0,0.5],[1,0.5]];portConstraint=eastwest;fontSize=16;" vertex="1" parent="KBhPziEbL2yX5BmD8qqc-1">
          <mxGeometry width="96" height="23" as="geometry" />
        </mxCell>
        <mxCell id="KBhPziEbL2yX5BmD8qqc-3" value="&lt;font style=&quot;font-size: 12px;&quot; face=&quot;Verdana&quot;&gt;Numero Operai&lt;/font&gt;" style="shape=partialRectangle;html=1;whiteSpace=wrap;connectable=0;strokeColor=inherit;overflow=hidden;fillColor=none;top=0;left=0;bottom=0;right=0;pointerEvents=1;fontSize=16;" vertex="1" parent="KBhPziEbL2yX5BmD8qqc-2">
          <mxGeometry width="96" height="23" as="geometry">
            <mxRectangle width="96" height="23" as="alternateBounds" />
          </mxGeometry>
        </mxCell>
        <mxCell id="KBhPziEbL2yX5BmD8qqc-4" style="shape=tableRow;horizontal=0;startSize=0;swimlaneHead=0;swimlaneBody=0;strokeColor=inherit;top=0;left=0;bottom=0;right=0;collapsible=0;dropTarget=0;fillColor=none;points=[[0,0.5],[1,0.5]];portConstraint=eastwest;fontSize=16;" vertex="1" parent="KBhPziEbL2yX5BmD8qqc-1">
          <mxGeometry y="23" width="96" height="40" as="geometry" />
        </mxCell>
        <mxCell id="KBhPziEbL2yX5BmD8qqc-5" value="&lt;font style=&quot;font-size: 12px;&quot;&gt;$$x + 1.000$$&lt;/font&gt;" style="shape=partialRectangle;html=1;whiteSpace=wrap;connectable=0;strokeColor=inherit;overflow=hidden;fillColor=none;top=0;left=0;bottom=0;right=0;pointerEvents=1;fontSize=16;" vertex="1" parent="KBhPziEbL2yX5BmD8qqc-4">
          <mxGeometry width="96" height="40" as="geometry">
            <mxRectangle width="96" height="40" as="alternateBounds" />
          </mxGeometry>
        </mxCell>
        <mxCell id="KBhPziEbL2yX5BmD8qqc-6" value="" style="shape=tableRow;horizontal=0;startSize=0;swimlaneHead=0;swimlaneBody=0;strokeColor=inherit;top=0;left=0;bottom=0;right=0;collapsible=0;dropTarget=0;fillColor=none;points=[[0,0.5],[1,0.5]];portConstraint=eastwest;fontSize=16;" vertex="1" parent="KBhPziEbL2yX5BmD8qqc-1">
          <mxGeometry y="63" width="96" height="39" as="geometry" />
        </mxCell>
        <mxCell id="KBhPziEbL2yX5BmD8qqc-7" value="&lt;span style=&quot;font-size: 12px;&quot;&gt;$$5 \cdot x$$&lt;/span&gt;" style="shape=partialRectangle;html=1;whiteSpace=wrap;connectable=0;strokeColor=inherit;overflow=hidden;fillColor=none;top=0;left=0;bottom=0;right=0;pointerEvents=1;fontSize=16;" vertex="1" parent="KBhPziEbL2yX5BmD8qqc-6">
          <mxGeometry width="96" height="39" as="geometry">
            <mxRectangle width="96" height="39" as="alternateBounds" />
          </mxGeometry>
        </mxCell>
        <mxCell id="KBhPziEbL2yX5BmD8qqc-8" value="" style="shape=tableRow;horizontal=0;startSize=0;swimlaneHead=0;swimlaneBody=0;strokeColor=inherit;top=0;left=0;bottom=0;right=0;collapsible=0;dropTarget=0;fillColor=none;points=[[0,0.5],[1,0.5]];portConstraint=eastwest;fontSize=16;" vertex="1" parent="KBhPziEbL2yX5BmD8qqc-1">
          <mxGeometry y="102" width="96" height="40" as="geometry" />
        </mxCell>
        <mxCell id="KBhPziEbL2yX5BmD8qqc-9" value="&lt;font style=&quot;font-size: 12px; color: rgb(0, 0, 0);&quot;&gt;$$calc:1.250$$&lt;/font&gt;" style="shape=partialRectangle;html=1;whiteSpace=wrap;connectable=0;strokeColor=inherit;overflow=hidden;fillColor=none;top=0;left=0;bottom=0;right=0;pointerEvents=1;fontSize=16;" vertex="1" parent="KBhPziEbL2yX5BmD8qqc-8">
          <mxGeometry width="96" height="40" as="geometry">
            <mxRectangle width="96" height="40" as="alternateBounds" />
          </mxGeometry>
        </mxCell>
      </root>
    </mxGraphModel>
  </diagram>
  <diagram id="8Ryy2X49wBb3iw6reX6A" name="Pagina-4">
    <mxGraphModel dx="1050" dy="621" grid="0" gridSize="10" guides="1" tooltips="1" connect="1" arrows="1" fold="1" page="1" pageScale="1" pageWidth="1169" pageHeight="827" math="1" shadow="0">
      <root>
        <mxCell id="0" />
        <mxCell id="1" parent="0" />
        <mxCell id="heTC4rARQPcyP_lUOAAz-1" value="&lt;table style=&quot;border: 1px solid rgb(51, 0, 0); border-collapse: collapse; font-size: 12px;&quot; border=&quot;1&quot;&gt;&lt;tbody style=&quot;font-size: 12px;&quot;&gt;&lt;tr style=&quot;font-size: 12px;&quot;&gt;&lt;td border=&quot;1&quot; style=&quot;font-size: 12px; border: 1px solid rgb(51, 0, 0); border-collapse: collapse;&quot;&gt;Durata Lavorazione&amp;nbsp;Giacomo&lt;/td&gt;&lt;/tr&gt;&lt;tr&gt;&lt;td&gt;$$3$$&lt;/td&gt;&lt;/tr&gt;&lt;/tbody&gt;&lt;/table&gt;" style="text;html=1;align=center;verticalAlign=middle;whiteSpace=wrap;rounded=0;fontSize=12;" vertex="1" parent="1">
          <mxGeometry x="220" y="155" width="140" height="82" as="geometry" />
        </mxCell>
        <mxCell id="heTC4rARQPcyP_lUOAAz-2" value="&lt;table style=&quot;border: 1px solid rgb(51, 0, 0); border-collapse: collapse; font-size: 12px;&quot; border=&quot;1&quot;&gt;&lt;tbody style=&quot;font-size: 12px;&quot;&gt;&lt;tr style=&quot;font-size: 12px;&quot;&gt;&lt;td border=&quot;1&quot; style=&quot;font-size: 12px; border: 1px solid rgb(51, 0, 0); border-collapse: collapse;&quot;&gt;Prodotto&lt;br&gt;Parete&lt;/td&gt;&lt;/tr&gt;&lt;tr&gt;&lt;td&gt;$$1$$&lt;/td&gt;&lt;/tr&gt;&lt;/tbody&gt;&lt;/table&gt;" style="text;html=1;align=center;verticalAlign=middle;whiteSpace=wrap;rounded=0;fontSize=12;" vertex="1" parent="1">
          <mxGeometry x="80" y="279" width="63.5" height="70" as="geometry" />
        </mxCell>
        <mxCell id="heTC4rARQPcyP_lUOAAz-7" value="" style="endArrow=classic;html=1;rounded=0;exitX=1;exitY=0.5;exitDx=0;exitDy=0;entryX=0;entryY=0.75;entryDx=0;entryDy=0;" edge="1" parent="1" source="heTC4rARQPcyP_lUOAAz-2" target="heTC4rARQPcyP_lUOAAz-12">
          <mxGeometry width="50" height="50" relative="1" as="geometry">
            <mxPoint x="261" y="69.5" as="sourcePoint" />
            <mxPoint x="286" y="303" as="targetPoint" />
          </mxGeometry>
        </mxCell>
        <mxCell id="heTC4rARQPcyP_lUOAAz-8" value="" style="endArrow=classic;html=1;rounded=0;exitX=1;exitY=0.5;exitDx=0;exitDy=0;entryX=0;entryY=0.25;entryDx=0;entryDy=0;" edge="1" parent="1" source="heTC4rARQPcyP_lUOAAz-1" target="heTC4rARQPcyP_lUOAAz-12">
          <mxGeometry width="50" height="50" relative="1" as="geometry">
            <mxPoint x="167" y="154.5" as="sourcePoint" />
            <mxPoint x="269" y="199.5" as="targetPoint" />
          </mxGeometry>
        </mxCell>
        <mxCell id="heTC4rARQPcyP_lUOAAz-11" value="&lt;table style=&quot;border: 1px solid rgb(51, 0, 0); border-collapse: collapse; font-size: 12px;&quot; border=&quot;1&quot;&gt;&lt;tbody style=&quot;font-size: 12px;&quot;&gt;&lt;tr style=&quot;font-size: 12px;&quot;&gt;&lt;td border=&quot;1&quot; style=&quot;font-size: 12px; border: 1px solid rgb(51, 0, 0); border-collapse: collapse;&quot;&gt;Durata Lavorazione&amp;nbsp;Giovanni&lt;/td&gt;&lt;/tr&gt;&lt;tr&gt;&lt;td&gt;$$5$$&lt;/td&gt;&lt;/tr&gt;&lt;/tbody&gt;&lt;/table&gt;" style="text;html=1;align=center;verticalAlign=middle;whiteSpace=wrap;rounded=0;fontSize=12;" vertex="1" parent="1">
          <mxGeometry x="160" y="373" width="140" height="82" as="geometry" />
        </mxCell>
        <mxCell id="heTC4rARQPcyP_lUOAAz-12" value="&lt;table style=&quot;border: 1px solid rgb(51, 0, 0); border-collapse: collapse; font-size: 12px;&quot; border=&quot;1&quot;&gt;&lt;tbody style=&quot;font-size: 12px;&quot;&gt;&lt;tr style=&quot;font-size: 12px;&quot;&gt;&lt;td border=&quot;1&quot; style=&quot;font-size: 12px; border: 1px solid rgb(51, 0, 0); border-collapse: collapse;&quot;&gt;Produttività&lt;br&gt;Giacomo&lt;/td&gt;&lt;/tr&gt;&lt;tr&gt;&lt;td&gt;$$\pi_1$$&lt;/td&gt;&lt;/tr&gt;&lt;tr&gt;&lt;td style=&quot;border: 1px solid rgb(51, 0, 0); border-collapse: collapse;&quot; border=&quot;1&quot;&gt;$$\dfrac{1}{3}$$&lt;br&gt;&lt;/td&gt;&lt;/tr&gt;&lt;/tbody&gt;&lt;/table&gt;" style="text;html=1;align=center;verticalAlign=middle;whiteSpace=wrap;rounded=0;fontSize=12;" vertex="1" parent="1">
          <mxGeometry x="400" y="159" width="77" height="150" as="geometry" />
        </mxCell>
        <mxCell id="heTC4rARQPcyP_lUOAAz-13" value="&lt;table style=&quot;border: 1px solid rgb(51, 0, 0); border-collapse: collapse; font-size: 12px;&quot; border=&quot;1&quot;&gt;&lt;tbody style=&quot;font-size: 12px;&quot;&gt;&lt;tr style=&quot;font-size: 12px;&quot;&gt;&lt;td border=&quot;1&quot; style=&quot;font-size: 12px; border: 1px solid rgb(51, 0, 0); border-collapse: collapse;&quot;&gt;Produttività&lt;br&gt;Giovanni&lt;/td&gt;&lt;/tr&gt;&lt;tr&gt;&lt;td&gt;$$\pi_1$$&lt;/td&gt;&lt;/tr&gt;&lt;tr&gt;&lt;td style=&quot;border: 1px solid rgb(51, 0, 0); border-collapse: collapse;&quot; border=&quot;1&quot;&gt;$$\dfrac{1}{5}$$&lt;br&gt;&lt;/td&gt;&lt;/tr&gt;&lt;/tbody&gt;&lt;/table&gt;" style="text;html=1;align=center;verticalAlign=middle;whiteSpace=wrap;rounded=0;fontSize=12;" vertex="1" parent="1">
          <mxGeometry x="400" y="320" width="77" height="150" as="geometry" />
        </mxCell>
        <mxCell id="heTC4rARQPcyP_lUOAAz-14" value="" style="endArrow=classic;html=1;rounded=0;exitX=1;exitY=0.75;exitDx=0;exitDy=0;entryX=0;entryY=0.25;entryDx=0;entryDy=0;" edge="1" parent="1" source="heTC4rARQPcyP_lUOAAz-2" target="heTC4rARQPcyP_lUOAAz-13">
          <mxGeometry width="50" height="50" relative="1" as="geometry">
            <mxPoint x="290" y="180" as="sourcePoint" />
            <mxPoint x="410" y="195" as="targetPoint" />
          </mxGeometry>
        </mxCell>
        <mxCell id="heTC4rARQPcyP_lUOAAz-15" value="" style="endArrow=classic;html=1;rounded=0;exitX=1;exitY=0.5;exitDx=0;exitDy=0;entryX=0;entryY=0.5;entryDx=0;entryDy=0;" edge="1" parent="1" source="heTC4rARQPcyP_lUOAAz-11" target="heTC4rARQPcyP_lUOAAz-13">
          <mxGeometry width="50" height="50" relative="1" as="geometry">
            <mxPoint x="300" y="190" as="sourcePoint" />
            <mxPoint x="420" y="205" as="targetPoint" />
          </mxGeometry>
        </mxCell>
        <mxCell id="heTC4rARQPcyP_lUOAAz-16" value="&lt;table style=&quot;border: 1px solid rgb(51, 0, 0); border-collapse: collapse; font-size: 12px;&quot; border=&quot;1&quot;&gt;&lt;tbody style=&quot;font-size: 12px;&quot;&gt;&lt;tr style=&quot;font-size: 12px;&quot;&gt;&lt;td border=&quot;1&quot; style=&quot;font-size: 12px; border: 1px solid rgb(51, 0, 0); border-collapse: collapse;&quot;&gt;Somma&lt;br&gt;Produttività&lt;br&gt;&lt;/td&gt;&lt;/tr&gt;&lt;tr&gt;&lt;td&gt;$$\pi_1 + \pi_2$$&lt;/td&gt;&lt;/tr&gt;&lt;tr&gt;&lt;td style=&quot;border: 1px solid rgb(51, 0, 0); border-collapse: collapse;&quot; border=&quot;1&quot;&gt;$$\dfrac{8}{15}$$&lt;br&gt;&lt;/td&gt;&lt;/tr&gt;&lt;/tbody&gt;&lt;/table&gt;" style="text;html=1;align=center;verticalAlign=middle;whiteSpace=wrap;rounded=0;fontSize=12;" vertex="1" parent="1">
          <mxGeometry x="550" y="211" width="77" height="150" as="geometry" />
        </mxCell>
        <mxCell id="heTC4rARQPcyP_lUOAAz-18" value="" style="endArrow=classic;html=1;rounded=0;exitX=1;exitY=0.5;exitDx=0;exitDy=0;entryX=0;entryY=0.5;entryDx=0;entryDy=0;" edge="1" parent="1" source="heTC4rARQPcyP_lUOAAz-12" target="heTC4rARQPcyP_lUOAAz-16">
          <mxGeometry width="50" height="50" relative="1" as="geometry">
            <mxPoint x="290" y="180" as="sourcePoint" />
            <mxPoint x="410" y="207" as="targetPoint" />
          </mxGeometry>
        </mxCell>
        <mxCell id="heTC4rARQPcyP_lUOAAz-19" value="" style="endArrow=classic;html=1;rounded=0;exitX=1;exitY=0.5;exitDx=0;exitDy=0;entryX=0;entryY=0.75;entryDx=0;entryDy=0;" edge="1" parent="1" source="heTC4rARQPcyP_lUOAAz-13" target="heTC4rARQPcyP_lUOAAz-16">
          <mxGeometry width="50" height="50" relative="1" as="geometry">
            <mxPoint x="300" y="190" as="sourcePoint" />
            <mxPoint x="420" y="217" as="targetPoint" />
          </mxGeometry>
        </mxCell>
        <mxCell id="heTC4rARQPcyP_lUOAAz-20" value="&lt;table style=&quot;border: 1px solid rgb(51, 0, 0); border-collapse: collapse; font-size: 12px;&quot; border=&quot;1&quot;&gt;&lt;tbody style=&quot;font-size: 12px;&quot;&gt;&lt;tr style=&quot;font-size: 12px;&quot;&gt;&lt;td style=&quot;font-size: 12px;&quot;&gt;Durata Lavorazione Gruppo&lt;/td&gt;&lt;/tr&gt;&lt;tr&gt;&lt;td style=&quot;border: 1px solid rgb(51, 0, 0); border-collapse: collapse;&quot; border=&quot;1&quot;&gt;$$t$$&lt;/td&gt;&lt;/tr&gt;&lt;tr&gt;&lt;td&gt;&lt;font color=&quot;#ff0000&quot;&gt;$$calc: \dfrac{15}{8}$$&lt;/font&gt;&lt;/td&gt;&lt;/tr&gt;&lt;/tbody&gt;&lt;/table&gt;" style="text;html=1;align=center;verticalAlign=middle;whiteSpace=wrap;rounded=0;fontSize=12;" vertex="1" parent="1">
          <mxGeometry x="518.5" y="73" width="140" height="82" as="geometry" />
        </mxCell>
        <mxCell id="heTC4rARQPcyP_lUOAAz-21" value="" style="endArrow=classic;html=1;rounded=0;exitX=1;exitY=0.75;exitDx=0;exitDy=0;entryX=0;entryY=0.5;entryDx=0;entryDy=0;" edge="1" parent="1" source="heTC4rARQPcyP_lUOAAz-20" target="heTC4rARQPcyP_lUOAAz-22">
          <mxGeometry width="50" height="50" relative="1" as="geometry">
            <mxPoint x="487" y="244" as="sourcePoint" />
            <mxPoint x="670" y="324" as="targetPoint" />
          </mxGeometry>
        </mxCell>
        <mxCell id="heTC4rARQPcyP_lUOAAz-25" value="$$e1$$" style="edgeLabel;html=1;align=center;verticalAlign=middle;resizable=0;points=[];" vertex="1" connectable="0" parent="heTC4rARQPcyP_lUOAAz-21">
          <mxGeometry x="-0.1329" y="-1" relative="1" as="geometry">
            <mxPoint x="-18" y="16" as="offset" />
          </mxGeometry>
        </mxCell>
        <mxCell id="heTC4rARQPcyP_lUOAAz-22" value="&lt;table style=&quot;border: 1px solid rgb(51, 0, 0); border-collapse: collapse; font-size: 12px;&quot; border=&quot;1&quot;&gt;&lt;tbody style=&quot;font-size: 12px;&quot;&gt;&lt;tr style=&quot;font-size: 12px;&quot;&gt;&lt;td style=&quot;font-size: 12px;&quot;&gt;Produttività&lt;br&gt;Gruppo&lt;/td&gt;&lt;/tr&gt;&lt;tr&gt;&lt;td style=&quot;border: 1px solid rgb(51, 0, 0); border-collapse: collapse;&quot; border=&quot;1&quot;&gt;$$e1:\dfrac{1}{t}$$&lt;/td&gt;&lt;/tr&gt;&lt;tr&gt;&lt;td style=&quot;border: 1px solid rgb(51, 0, 0); border-collapse: collapse;&quot; border=&quot;1&quot;&gt;$$e2:\dfrac{8}{15}$$&lt;br&gt;&lt;/td&gt;&lt;/tr&gt;&lt;/tbody&gt;&lt;/table&gt;" style="text;html=1;align=center;verticalAlign=middle;whiteSpace=wrap;rounded=0;fontSize=12;" vertex="1" parent="1">
          <mxGeometry x="750" y="211" width="77" height="150" as="geometry" />
        </mxCell>
        <mxCell id="heTC4rARQPcyP_lUOAAz-23" value="" style="endArrow=classic;html=1;rounded=0;exitX=1;exitY=0.75;exitDx=0;exitDy=0;entryX=0;entryY=0.75;entryDx=0;entryDy=0;" edge="1" parent="1" source="heTC4rARQPcyP_lUOAAz-16" target="heTC4rARQPcyP_lUOAAz-22">
          <mxGeometry width="50" height="50" relative="1" as="geometry">
            <mxPoint x="670" y="181" as="sourcePoint" />
            <mxPoint x="760" y="259" as="targetPoint" />
          </mxGeometry>
        </mxCell>
        <mxCell id="heTC4rARQPcyP_lUOAAz-24" value="$$e2$$" style="edgeLabel;html=1;align=center;verticalAlign=middle;resizable=0;points=[];" vertex="1" connectable="0" parent="heTC4rARQPcyP_lUOAAz-23">
          <mxGeometry x="0.1154" y="-1" relative="1" as="geometry">
            <mxPoint x="-6" y="25" as="offset" />
          </mxGeometry>
        </mxCell>
        <mxCell id="heTC4rARQPcyP_lUOAAz-26" value="" style="endArrow=classic;html=1;rounded=0;exitX=1;exitY=0.25;exitDx=0;exitDy=0;entryX=0;entryY=0.25;entryDx=0;entryDy=0;" edge="1" parent="1" source="heTC4rARQPcyP_lUOAAz-2" target="heTC4rARQPcyP_lUOAAz-22">
          <mxGeometry width="50" height="50" relative="1" as="geometry">
            <mxPoint x="230" y="308" as="sourcePoint" />
            <mxPoint x="410" y="282" as="targetPoint" />
            <Array as="points">
              <mxPoint x="240" y="40" />
              <mxPoint x="690" y="40" />
            </Array>
          </mxGeometry>
        </mxCell>
        <mxCell id="heTC4rARQPcyP_lUOAAz-27" value="$$e1$$" style="edgeLabel;html=1;align=center;verticalAlign=middle;resizable=0;points=[];" vertex="1" connectable="0" parent="heTC4rARQPcyP_lUOAAz-26">
          <mxGeometry x="0.8131" y="1" relative="1" as="geometry">
            <mxPoint x="15" y="-16" as="offset" />
          </mxGeometry>
        </mxCell>
      </root>
    </mxGraphModel>
  </diagram>
</mxfile>
